<?xml version="1.0" encoding="UTF-8" standalone="no"?>
<svg xmlns="http://www.w3.org/2000/svg" xmlns:xlink="http://www.w3.org/1999/xlink" width="461" height="1599" viewBox="0 0 461 1599">
<g fill="none" stroke="#666666" stroke-width="1.4" stroke-linejoin="round" stroke-linecap="butt">
<path d="M 126.2,39.7 L 126.2,61.6"/>
<path d="M 126.2,71.0 L 126.2,73.5 L 126.2,155.3"/>
<path d="M 126.2,164.5 L 126.2,186.4" stroke="#636EFA"/>
<path d="M 126.2,195.8 L 126.2,198.2 L 126.2,260.6 L 126.2,510.2 L 126.2,572.6 L 126.2,635.0 L 126.2,728.6 L 126.2,791.0 L 126.2,1040.7 A 8.4,8.4 0 0 0 134.7,1049.1" stroke="#636EFA"/>
<path d="M 126.2,1216.0 L 126.2,1213.5 A 8.4,8.4 0 0 1 134.7,1205.1 A 8.4,8.4 0 0 0 143.1,1196.7" stroke="#8A8A8A"/>
<path d="M 126.2,1225.4 L 126.2,1259.0 L 126.2,1321.5 A 8.4,8.4 0 0 1 117.8,1329.9" stroke="#8A8A8A"/>
<path d="M 143.1,92.9 L 143.1,90.3 A 8.4,8.4 0 0 0 134.7,81.9 A 8.4,8.4 0 0 1 126.2,73.5"/>
<path d="M 143.1,102.1 L 143.1,123.4" stroke="#636EFA"/>
<path d="M 143.1,217.7 L 143.1,215.2 A 8.4,8.4 0 0 0 134.7,206.7 A 8.4,8.4 0 0 1 126.2,198.2" stroke="#636EFA"/>
<path d="M 143.1,226.9 L 143.1,248.2" stroke="#636EFA"/>
<path d="M 143.1,280.1 L 143.1,277.6 A 8.4,8.4 0 0 0 134.7,269.1 A 8.4,8.4 0 0 1 126.2,260.6" stroke="#636EFA"/>
<path d="M 143.1,289.3 L 143.1,311.2" stroke="#EF553B"/>
<path d="M 143.1,320.6 L 143.1,342.5" stroke="#EF553B"/>
<path d="M 143.1,351.7 L 143.1,373.6" stroke="#8A8A8A"/>
<path d="M 143.1,383.0 L 143.1,385.4 L 143.1,447.9 L 143.1,572.6 L 143.1,635.0 L 143.1,728.6 L 143.1,791.0 L 143.1,1057.5 L 143.1,1060.1" stroke="#8A8A8A"/>
<path d="M 143.1,1069.3 L 143.1,1091.2" stroke="#FFA15A"/>
<path d="M 143.1,1100.6 L 143.1,1184.9" stroke="#FFA15A"/>
<path d="M 143.1,1194.1 L 143.1,1196.7 L 143.1,1247.2" stroke="#8A8A8A"/>
<path d="M 143.1,1256.6 L 143.1,1259.0 L 143.1,1321.5 A 8.5,8.5 0 0 1 134.7,1329.9 L 117.8,1329.9 A 8.5,8.5 0 0 0 109.3,1338.3" stroke="#8A8A8A"/>
<path d="M 176.9,467.3 L 176.9,464.8 A 8.5,8.5 0 0 0 168.5,456.3 L 151.6,456.3 A 8.5,8.5 0 0 1 143.1,447.9" stroke="#8A8A8A"/>
<path d="M 176.9,476.5 L 176.9,498.4" stroke="#00CC96"/>
<path d="M 176.9,507.8 L 176.9,527.1 L 176.9,529.7" stroke="#00CC96"/>
<path d="M 176.9,538.9 L 176.9,560.8" stroke="#00CC96"/>
<path d="M 176.9,570.2 L 176.9,572.6 L 176.9,635.0 L 176.9,728.6 L 176.9,791.0 L 176.9,1040.7 A 8.5,8.5 0 0 1 168.5,1049.1 L 151.6,1049.1 A 8.5,8.5 0 0 0 143.1,1057.5" stroke="#00CC96"/>
<path d="M 151.6,581.1 L 134.7,581.1 A 8.5,8.5 0 0 1 126.2,572.6" stroke="#636EFA"/>
<path d="M 160.0,404.9 L 160.0,402.4 A 8.5,8.5 0 0 0 151.6,393.9 A 8.5,8.5 0 0 1 143.1,385.4" stroke="#8A8A8A"/>
<path d="M 160.0,414.1 L 160.0,435.4" stroke="#8A8A8A"/>
<path d="M 160.0,592.1 L 160.0,589.5 A 8.4,8.4 0 0 1 168.5,581.1 A 8.4,8.4 0 0 0 176.9,572.6" stroke="#00CC96"/>
<path d="M 160.0,601.3 L 160.0,623.2" stroke="#AB63FA"/>
<path d="M 160.0,632.6 L 160.0,635.0 L 160.0,1276.0" stroke="#AB63FA"/>
<path d="M 160.0,1278.5 L 160.0,1276.0 A 8.5,8.5 0 0 0 151.6,1267.5 L 134.7,1267.5 L 117.8,1267.5 L 84.0,1267.5 L 67.1,1267.5 L 50.2,1267.5 L 33.3,1267.5 A 8.5,8.5 0 0 1 24.8,1259.0" stroke="#8A8A8A"/>
<path d="M 160.0,1287.7 L 160.0,1309.6" stroke="#8A8A8A"/>
<path d="M 160.0,1319.0 L 160.0,1465.7" stroke="#8A8A8A"/>
<path d="M 160.0,1474.9 L 160.0,1496.8" stroke="#8A8A8A"/>
<path d="M 160.0,1506.2 L 160.0,1525.5 L 160.0,1528.1" stroke="#8A8A8A"/>
<path d="M 160.0,1537.3 L 160.0,1558.6" stroke="#8A8A8A"/>
<path d="M 109.3,654.5 L 109.3,652.0 A 8.5,8.5 0 0 1 117.8,643.5 L 134.7,643.5 L 151.6,643.5 A 8.5,8.5 0 0 0 160.0,635.0" stroke="#AB63FA"/>
<path d="M 109.3,663.7 L 109.3,666.2 L 109.3,716.8" stroke="#AB63FA"/>
<path d="M 109.3,726.2 L 109.3,853.5 L 109.3,915.9 L 109.3,1259.0 L 109.3,1338.3" stroke="#AB63FA"/>
<path d="M 109.3,1340.9 L 109.3,1338.3 A 8.5,8.5 0 0 0 100.9,1329.9 L 84.0,1329.9 L 67.1,1329.9 L 50.2,1329.9 L 33.3,1329.9 A 8.5,8.5 0 0 1 24.8,1321.5 L 24.8,1259.0 L 24.8,1163.0" stroke="#8A8A8A"/>
<path d="M 109.3,1350.1 L 109.3,1372.0" stroke="#19D3F3"/>
<path d="M 109.3,1381.4 L 109.3,1403.3" stroke="#19D3F3"/>
<path d="M 109.3,1412.5 L 109.3,1434.4" stroke="#8A8A8A"/>
<path d="M 109.3,1443.8 L 109.3,1508.7 A 8.5,8.5 0 0 0 117.8,1517.1 L 151.6,1517.1 A 8.5,8.5 0 0 1 160.0,1525.5" stroke="#8A8A8A"/>
<path d="M 41.7,748.1 L 41.7,745.5 A 8.5,8.5 0 0 1 50.2,737.1 L 117.8,737.1 L 134.7,737.1 L 168.5,737.1 A 8.5,8.5 0 0 0 176.9,728.6" stroke="#00CC96"/>
<path d="M 41.7,757.3 L 41.7,779.2" stroke="#AB63FA"/>
<path d="M 41.7,788.6 L 41.7,853.5 L 41.7,915.9 L 41.7,1259.0 L 41.7,1321.5 A 8.5,8.5 0 0 0 50.2,1329.9" stroke="#AB63FA"/>
<path d="M 75.5,810.5 L 75.5,808.0 A 8.5,8.5 0 0 1 84.0,799.5 L 117.8,799.5 L 134.7,799.5 L 168.5,799.5 A 8.5,8.5 0 0 0 176.9,791.0" stroke="#00CC96"/>
<path d="M 75.5,819.7 L 75.5,841.6" stroke="#AB63FA"/>
<path d="M 75.5,851.0 L 75.5,853.5 L 75.5,915.9 L 75.5,1259.0 L 75.5,1321.5 A 8.5,8.5 0 0 0 84.0,1329.9" stroke="#AB63FA"/>
<path d="M 151.6,643.5 L 168.5,643.5 A 8.5,8.5 0 0 0 176.9,635.0" stroke="#00CC96"/>
<path d="M 24.8,685.6 L 24.8,683.1 A 8.5,8.5 0 0 1 33.3,674.7 L 100.9,674.7 A 8.5,8.5 0 0 0 109.3,666.2" stroke="#AB63FA"/>
<path d="M 24.8,695.0 L 24.8,1122.5" stroke="#AB63FA"/>
<path d="M 24.8,1131.7 L 24.8,1153.6" stroke="#8A8A8A"/>
<path d="M 58.6,872.9 L 58.6,870.4 A 8.4,8.4 0 0 1 67.1,861.9 L 100.9,861.9 A 8.5,8.5 0 0 0 109.3,853.5" stroke="#AB63FA"/>
<path d="M 58.6,882.1 L 58.6,904.0" stroke="#8A8A8A"/>
<path d="M 58.6,913.4 L 58.6,915.9 L 58.6,1259.0 L 58.6,1321.5 A 8.5,8.5 0 0 0 67.1,1329.9" stroke="#8A8A8A"/>
<path d="M 92.4,935.3 L 92.4,932.8 A 8.5,8.5 0 0 0 84.0,924.3 L 67.1,924.3 A 8.5,8.5 0 0 1 58.6,915.9" stroke="#8A8A8A"/>
<path d="M 92.4,944.5 L 92.4,966.4" stroke="#8A8A8A"/>
<path d="M 92.4,975.8 L 92.4,997.7" stroke="#8A8A8A"/>
<path d="M 92.4,1006.9 L 92.4,1028.8" stroke="#8A8A8A"/>
<path d="M 92.4,1038.2 L 92.4,1040.7 A 8.5,8.5 0 0 0 100.9,1049.1 L 134.7,1049.1 A 8.5,8.5 0 0 1 143.1,1057.5" stroke="#8A8A8A"/>
<path d="M 67.1,924.3 L 50.2,924.3 A 8.5,8.5 0 0 1 41.7,915.9" stroke="#AB63FA"/>
<path d="M 126.2,510.2 A 8.5,8.5 0 0 0 134.7,518.7 L 168.5,518.7 A 8.5,8.5 0 0 1 176.9,527.1" stroke="#636EFA"/>
<path d="M 160.0,589.5 A 8.5,8.5 0 0 0 151.6,581.1 A 8.5,8.5 0 0 1 143.1,572.6" stroke="#8A8A8A"/>
<path d="M 126.2,635.0 A 8.4,8.4 0 0 1 117.8,643.5" stroke="#636EFA"/>
<path d="M 126.2,728.6 A 8.5,8.5 0 0 1 117.8,737.1" stroke="#636EFA"/>
<path d="M 126.2,791.0 A 8.5,8.5 0 0 1 117.8,799.5" stroke="#636EFA"/>
<path d="M 143.1,635.0 A 8.5,8.5 0 0 1 134.7,643.5" stroke="#8A8A8A"/>
<path d="M 143.1,728.6 A 8.5,8.5 0 0 1 134.7,737.1" stroke="#8A8A8A"/>
<path d="M 143.1,791.0 A 8.5,8.5 0 0 1 134.7,799.5" stroke="#8A8A8A"/>
<path d="M 109.3,915.9 A 8.5,8.5 0 0 1 100.9,924.3 A 8.5,8.5 0 0 0 92.4,932.8" stroke="#AB63FA"/>
<path d="M 109.3,1259.0 A 8.5,8.5 0 0 0 117.8,1267.5" stroke="#AB63FA"/>
<path d="M 41.7,853.5 A 8.4,8.4 0 0 0 50.2,861.9 A 8.4,8.4 0 0 1 58.6,870.4" stroke="#AB63FA"/>
<path d="M 41.7,1259.0 A 8.5,8.5 0 0 0 50.2,1267.5" stroke="#AB63FA"/>
<path d="M 75.5,853.5 A 8.4,8.4 0 0 1 67.1,861.9" stroke="#AB63FA"/>
<path d="M 75.5,915.9 A 8.5,8.5 0 0 0 84.0,924.3" stroke="#AB63FA"/>
<path d="M 75.5,1259.0 A 8.5,8.5 0 0 0 84.0,1267.5" stroke="#AB63FA"/>
<path d="M 58.6,1259.0 A 8.5,8.5 0 0 0 67.1,1267.5" stroke="#8A8A8A"/>
<path d="M 126.2,1259.0 A 8.5,8.5 0 0 0 134.7,1267.5" stroke="#8A8A8A"/>
<path d="M 143.1,1259.0 A 8.5,8.5 0 0 0 151.6,1267.5" stroke="#8A8A8A"/>
</g>
<g><title>given</title>
<polygon points="120.9,30.5 131.6,30.5 126.2,39.7" fill="#FFFFFF" stroke="#2B2B2B" stroke-width="2.0" stroke-linejoin="round"/>
<line x1="189.4" y1="26.5" x2="441.1" y2="26.5" stroke="#111111" stroke-width="1"/>
<text x="189.4" y="39.8" font-family="Arial" font-size="13" fill="#111111" font-weight="600" text-anchor="start">given</text></g>
<g><title>given::ch_samplesheet</title>
<circle cx="126.2" cy="66.3" r="4.7" fill="#FFFFFF" stroke="#6E6E6E" stroke-width="1.3"/>
<text x="199.8" y="60.8" font-family="Arial" font-size="6.5" fill="#7A7A7A" text-anchor="start">given</text>
<text x="199.8" y="71.0" font-family="Arial" font-size="13" fill="#7A7A7A" font-weight="normal" text-anchor="start">ch_samplesheet</text></g>
<g><title>fastqc_raw</title>
<polygon points="137.8,92.9 148.5,92.9 143.1,102.1" fill="#FFFFFF" stroke="#636EFA" stroke-width="2.0" stroke-linejoin="round"/>
<line x1="189.4" y1="88.9" x2="441.1" y2="88.9" stroke="#111111" stroke-width="1"/>
<text x="189.4" y="102.2" font-family="Arial" font-size="13" fill="#111111" font-weight="600" text-anchor="start">fastqc_raw</text></g>
<g><title>fastqc_raw::out</title>
<circle cx="143.1" cy="128.7" r="5.3" fill="#636EFA" stroke="#2B2B2B" stroke-width="1.3"/>
<text x="199.8" y="123.2" font-family="Arial" font-size="6.5" fill="#7A7A7A" text-anchor="start">fastqc_raw</text>
<text x="199.8" y="133.4" font-family="Arial" font-size="13" fill="#7A7A7A" font-weight="normal" text-anchor="start">out</text></g>
<g><title>fastp</title>
<polygon points="120.9,155.3 131.6,155.3 126.2,164.5" fill="#FFFFFF" stroke="#636EFA" stroke-width="2.0" stroke-linejoin="round"/>
<line x1="189.4" y1="151.3" x2="441.1" y2="151.3" stroke="#111111" stroke-width="1"/>
<text x="189.4" y="164.6" font-family="Arial" font-size="13" fill="#111111" font-weight="600" text-anchor="start">fastp</text></g>
<g><title>fastp::ch_short_reads_for_merge</title>
<circle cx="126.2" cy="191.1" r="4.7" fill="#FFFFFF" stroke="#636EFA" stroke-width="1.3"/>
<text x="199.8" y="185.6" font-family="Arial" font-size="6.5" fill="#7A7A7A" text-anchor="start">fastp</text>
<text x="199.8" y="195.8" font-family="Arial" font-size="13" fill="#7A7A7A" font-weight="normal" text-anchor="start">ch_short_reads_for_merge</text></g>
<g><title>fastqc_trimmed</title>
<polygon points="137.8,217.7 148.5,217.7 143.1,226.9" fill="#FFFFFF" stroke="#636EFA" stroke-width="2.0" stroke-linejoin="round"/>
<line x1="189.4" y1="213.7" x2="441.1" y2="213.7" stroke="#111111" stroke-width="1"/>
<text x="189.4" y="227.0" font-family="Arial" font-size="13" fill="#111111" font-weight="600" text-anchor="start">fastqc_trimmed</text></g>
<g><title>fastqc_trimmed::out</title>
<circle cx="143.1" cy="253.5" r="5.3" fill="#636EFA" stroke="#2B2B2B" stroke-width="1.3"/>
<text x="199.8" y="248.0" font-family="Arial" font-size="6.5" fill="#7A7A7A" text-anchor="start">fastqc_trimmed</text>
<text x="199.8" y="258.2" font-family="Arial" font-size="13" fill="#7A7A7A" font-weight="normal" text-anchor="start">out</text></g>
<g><title>megahit</title>
<polygon points="137.8,280.1 148.5,280.1 143.1,289.3" fill="#FFFFFF" stroke="#EF553B" stroke-width="2.0" stroke-linejoin="round"/>
<line x1="189.4" y1="276.1" x2="441.1" y2="276.1" stroke="#111111" stroke-width="1"/>
<text x="189.4" y="289.4" font-family="Arial" font-size="13" fill="#111111" font-weight="600" text-anchor="start">megahit</text></g>
<g><title>megahit::ch_megahit_assemblies</title>
<circle cx="143.1" cy="315.9" r="4.7" fill="#FFFFFF" stroke="#EF553B" stroke-width="1.3"/>
<text x="199.8" y="310.4" font-family="Arial" font-size="6.5" fill="#7A7A7A" text-anchor="start">megahit</text>
<text x="199.8" y="320.6" font-family="Arial" font-size="13" fill="#7A7A7A" font-weight="normal" text-anchor="start">ch_megahit_assemblies</text></g>
<g><title>gunzip_shortread_assemblies</title>
<polygon points="137.8,342.5 148.5,342.5 143.1,351.7" fill="#FFFFFF" stroke="#8A8A8A" stroke-width="2.0" stroke-linejoin="round"/>
<line x1="189.4" y1="338.5" x2="441.1" y2="338.5" stroke="#111111" stroke-width="1"/>
<text x="189.4" y="351.8" font-family="Arial" font-size="13" fill="#111111" font-weight="600" text-anchor="start">gunzip_shortread_assemblies</text></g>
<g><title>gunzip_shortread_assemblies::ch_assemblies</title>
<circle cx="143.1" cy="378.3" r="4.7" fill="#FFFFFF" stroke="#8A8A8A" stroke-width="1.3"/>
<text x="199.8" y="372.8" font-family="Arial" font-size="6.5" fill="#7A7A7A" text-anchor="start">gunzip_shortread_assemblies</text>
<text x="199.8" y="383.0" font-family="Arial" font-size="13" fill="#7A7A7A" font-weight="normal" text-anchor="start">ch_assemblies</text></g>
<g><title>prodigal</title>
<polygon points="154.7,404.9 165.4,404.9 160.0,414.1" fill="#FFFFFF" stroke="#8A8A8A" stroke-width="2.0" stroke-linejoin="round"/>
<line x1="189.4" y1="400.9" x2="441.1" y2="400.9" stroke="#111111" stroke-width="1"/>
<text x="189.4" y="414.2" font-family="Arial" font-size="13" fill="#111111" font-weight="600" text-anchor="start">prodigal</text></g>
<g><title>prodigal::out</title>
<circle cx="160.0" cy="440.7" r="5.3" fill="#8A8A8A" stroke="#2B2B2B" stroke-width="1.3"/>
<text x="199.8" y="435.2" font-family="Arial" font-size="6.5" fill="#7A7A7A" text-anchor="start">prodigal</text>
<text x="199.8" y="445.4" font-family="Arial" font-size="13" fill="#7A7A7A" font-weight="normal" text-anchor="start">out</text></g>
<g><title>bowtie2_assembly_build</title>
<polygon points="171.6,467.3 182.3,467.3 176.9,476.5" fill="#FFFFFF" stroke="#00CC96" stroke-width="2.0" stroke-linejoin="round"/>
<line x1="189.4" y1="463.3" x2="441.1" y2="463.3" stroke="#111111" stroke-width="1"/>
<text x="189.4" y="476.6" font-family="Arial" font-size="13" fill="#111111" font-weight="600" text-anchor="start">bowtie2_assembly_build</text></g>
<g><title>bowtie2_assembly_build::ch_bowtie2_input</title>
<circle cx="176.9" cy="503.1" r="4.7" fill="#FFFFFF" stroke="#00CC96" stroke-width="1.3"/>
<text x="199.8" y="497.6" font-family="Arial" font-size="6.5" fill="#7A7A7A" text-anchor="start">bowtie2_assembly_build</text>
<text x="199.8" y="507.8" font-family="Arial" font-size="13" fill="#7A7A7A" font-weight="normal" text-anchor="start">ch_bowtie2_input</text></g>
<g><title>bowtie2_assembly_align</title>
<polygon points="171.6,529.7 182.3,529.7 176.9,538.9" fill="#FFFFFF" stroke="#00CC96" stroke-width="2.0" stroke-linejoin="round"/>
<line x1="189.4" y1="525.7" x2="441.1" y2="525.7" stroke="#111111" stroke-width="1"/>
<text x="189.4" y="539.0" font-family="Arial" font-size="13" fill="#111111" font-weight="600" text-anchor="start">bowtie2_assembly_align</text></g>
<g><title>bowtie2_assembly_align::grouped_mappings</title>
<circle cx="176.9" cy="565.5" r="4.7" fill="#FFFFFF" stroke="#00CC96" stroke-width="1.3"/>
<text x="199.8" y="560.0" font-family="Arial" font-size="6.5" fill="#7A7A7A" text-anchor="start">bowtie2_assembly_align</text>
<text x="199.8" y="570.2" font-family="Arial" font-size="13" fill="#7A7A7A" font-weight="normal" text-anchor="start">grouped_mappings</text></g>
<g><title>metabat2_jgisummarizebamcontigdepths_shortread</title>
<polygon points="154.7,592.1 165.4,592.1 160.0,601.3" fill="#FFFFFF" stroke="#AB63FA" stroke-width="2.0" stroke-linejoin="round"/>
<line x1="189.4" y1="588.1" x2="441.1" y2="588.1" stroke="#111111" stroke-width="1"/>
<text x="189.4" y="601.4" font-family="Arial" font-size="13" fill="#111111" font-weight="600" text-anchor="start">metabat2_jgisummarizebamcontigd…</text></g>
<g><title>metabat2_jgisummarizebamcontigdepths_shortread::ch_depths</title>
<circle cx="160.0" cy="627.9" r="4.7" fill="#FFFFFF" stroke="#AB63FA" stroke-width="1.3"/>
<text x="199.8" y="622.4" font-family="Arial" font-size="6.5" fill="#7A7A7A" text-anchor="start">metabat2_jgisummarizebamcontigdepths_shortread</text>
<text x="199.8" y="632.6" font-family="Arial" font-size="13" fill="#7A7A7A" font-weight="normal" text-anchor="start">ch_depths</text></g>
<g><title>metabat2_metabat2</title>
<polygon points="104.0,654.5 114.7,654.5 109.3,663.7" fill="#FFFFFF" stroke="#AB63FA" stroke-width="2.0" stroke-linejoin="round"/>
<line x1="189.4" y1="650.5" x2="441.1" y2="650.5" stroke="#111111" stroke-width="1"/>
<text x="189.4" y="663.8" font-family="Arial" font-size="13" fill="#111111" font-weight="600" text-anchor="start">metabat2_metabat2</text></g>
<g><title>metabat2_metabat2::ch_input_splitfasta</title>
<circle cx="24.8" cy="690.3" r="4.7" fill="#FFFFFF" stroke="#AB63FA" stroke-width="1.3"/>
<text x="199.8" y="684.8" font-family="Arial" font-size="6.5" fill="#7A7A7A" text-anchor="start">metabat2_metabat2</text>
<text x="199.8" y="695.0" font-family="Arial" font-size="13" fill="#7A7A7A" font-weight="normal" text-anchor="start">ch_input_splitfasta</text></g>
<g><title>metabat2_metabat2::ch_bins_for_seqkit</title>
<circle cx="109.3" cy="721.5" r="4.7" fill="#FFFFFF" stroke="#AB63FA" stroke-width="1.3"/>
<text x="199.8" y="716.0" font-family="Arial" font-size="6.5" fill="#7A7A7A" text-anchor="start">metabat2_metabat2</text>
<text x="199.8" y="726.2" font-family="Arial" font-size="13" fill="#7A7A7A" font-weight="normal" text-anchor="start">ch_bins_for_seqkit</text></g>
<g><title>comebin_runcomebin</title>
<polygon points="36.4,748.1 47.1,748.1 41.7,757.3" fill="#FFFFFF" stroke="#AB63FA" stroke-width="2.0" stroke-linejoin="round"/>
<line x1="189.4" y1="744.1" x2="441.1" y2="744.1" stroke="#111111" stroke-width="1"/>
<text x="189.4" y="757.4" font-family="Arial" font-size="13" fill="#111111" font-weight="600" text-anchor="start">comebin_runcomebin</text></g>
<g><title>comebin_runcomebin::ch_bins_for_seqkit</title>
<circle cx="41.7" cy="783.9" r="4.7" fill="#FFFFFF" stroke="#AB63FA" stroke-width="1.3"/>
<text x="199.8" y="778.4" font-family="Arial" font-size="6.5" fill="#7A7A7A" text-anchor="start">comebin_runcomebin</text>
<text x="199.8" y="788.6" font-family="Arial" font-size="13" fill="#7A7A7A" font-weight="normal" text-anchor="start">ch_bins_for_seqkit</text></g>
<g><title>semibin_singleeasybin</title>
<polygon points="70.2,810.5 80.9,810.5 75.5,819.7" fill="#FFFFFF" stroke="#AB63FA" stroke-width="2.0" stroke-linejoin="round"/>
<line x1="189.4" y1="806.5" x2="441.1" y2="806.5" stroke="#111111" stroke-width="1"/>
<text x="189.4" y="819.8" font-family="Arial" font-size="13" fill="#111111" font-weight="600" text-anchor="start">semibin_singleeasybin</text></g>
<g><title>semibin_singleeasybin::ch_semibin_bins</title>
<circle cx="75.5" cy="846.3" r="4.7" fill="#FFFFFF" stroke="#AB63FA" stroke-width="1.3"/>
<text x="199.8" y="840.8" font-family="Arial" font-size="6.5" fill="#7A7A7A" text-anchor="start">semibin_singleeasybin</text>
<text x="199.8" y="851.0" font-family="Arial" font-size="13" fill="#7A7A7A" font-weight="normal" text-anchor="start">ch_semibin_bins</text></g>
<g><title>seqkit_stats</title>
<polygon points="53.3,872.9 64.0,872.9 58.6,882.1" fill="#FFFFFF" stroke="#8A8A8A" stroke-width="2.0" stroke-linejoin="round"/>
<line x1="189.4" y1="868.9" x2="441.1" y2="868.9" stroke="#111111" stroke-width="1"/>
<text x="189.4" y="882.2" font-family="Arial" font-size="13" fill="#111111" font-weight="600" text-anchor="start">seqkit_stats</text></g>
<g><title>seqkit_stats::bins</title>
<circle cx="58.6" cy="908.7" r="4.7" fill="#FFFFFF" stroke="#8A8A8A" stroke-width="1.3"/>
<text x="199.8" y="903.2" font-family="Arial" font-size="6.5" fill="#7A7A7A" text-anchor="start">seqkit_stats</text>
<text x="199.8" y="913.4" font-family="Arial" font-size="13" fill="#7A7A7A" font-weight="normal" text-anchor="start">bins</text></g>
<g><title>rename_predastool</title>
<polygon points="87.1,935.3 97.8,935.3 92.4,944.5" fill="#FFFFFF" stroke="#8A8A8A" stroke-width="2.0" stroke-linejoin="round"/>
<line x1="189.4" y1="931.3" x2="441.1" y2="931.3" stroke="#111111" stroke-width="1"/>
<text x="189.4" y="944.6" font-family="Arial" font-size="13" fill="#111111" font-weight="600" text-anchor="start">rename_predastool</text></g>
<g><title>rename_predastool::out</title>
<circle cx="92.4" cy="971.1" r="4.7" fill="#FFFFFF" stroke="#8A8A8A" stroke-width="1.3"/>
<text x="199.8" y="965.6" font-family="Arial" font-size="6.5" fill="#7A7A7A" text-anchor="start">rename_predastool</text>
<text x="199.8" y="975.8" font-family="Arial" font-size="13" fill="#7A7A7A" font-weight="normal" text-anchor="start">out</text></g>
<g><title>dastool_fastatocontig2bin</title>
<polygon points="87.1,997.7 97.8,997.7 92.4,1006.9" fill="#FFFFFF" stroke="#8A8A8A" stroke-width="2.0" stroke-linejoin="round"/>
<line x1="189.4" y1="993.7" x2="441.1" y2="993.7" stroke="#111111" stroke-width="1"/>
<text x="189.4" y="1007.0" font-family="Arial" font-size="13" fill="#111111" font-weight="600" text-anchor="start">dastool_fastatocontig2bin</text></g>
<g><title>dastool_fastatocontig2bin::ch_fastatocontig2bin_for_dastool</title>
<circle cx="92.4" cy="1033.5" r="4.7" fill="#FFFFFF" stroke="#8A8A8A" stroke-width="1.3"/>
<text x="199.8" y="1028.0" font-family="Arial" font-size="6.5" fill="#7A7A7A" text-anchor="start">dastool_fastatocontig2bin</text>
<text x="199.8" y="1038.2" font-family="Arial" font-size="13" fill="#7A7A7A" font-weight="normal" text-anchor="start">ch_fastatocontig2bin_for_dastool</text></g>
<g><title>dastool_dastool</title>
<polygon points="137.8,1060.1 148.5,1060.1 143.1,1069.3" fill="#FFFFFF" stroke="#FFA15A" stroke-width="2.0" stroke-linejoin="round"/>
<line x1="189.4" y1="1056.1" x2="441.1" y2="1056.1" stroke="#111111" stroke-width="1"/>
<text x="189.4" y="1069.4" font-family="Arial" font-size="13" fill="#111111" font-weight="600" text-anchor="start">dastool_dastool</text></g>
<g><title>dastool_dastool::ch_input_for_renamedastool</title>
<circle cx="143.1" cy="1095.9" r="4.7" fill="#FFFFFF" stroke="#FFA15A" stroke-width="1.3"/>
<text x="199.8" y="1090.4" font-family="Arial" font-size="6.5" fill="#7A7A7A" text-anchor="start">dastool_dastool</text>
<text x="199.8" y="1100.6" font-family="Arial" font-size="13" fill="#7A7A7A" font-weight="normal" text-anchor="start">ch_input_for_renamedastool</text></g>
<g><title>split_fasta</title>
<polygon points="19.5,1122.5 30.2,1122.5 24.8,1131.7" fill="#FFFFFF" stroke="#8A8A8A" stroke-width="2.0" stroke-linejoin="round"/>
<line x1="189.4" y1="1118.5" x2="441.1" y2="1118.5" stroke="#111111" stroke-width="1"/>
<text x="189.4" y="1131.8" font-family="Arial" font-size="13" fill="#111111" font-weight="600" text-anchor="start">split_fasta</text></g>
<g><title>split_fasta::unbinned</title>
<circle cx="24.8" cy="1158.3" r="4.7" fill="#FFFFFF" stroke="#8A8A8A" stroke-width="1.3"/>
<text x="199.8" y="1152.8" font-family="Arial" font-size="6.5" fill="#7A7A7A" text-anchor="start">split_fasta</text>
<text x="199.8" y="1163.0" font-family="Arial" font-size="13" fill="#7A7A7A" font-weight="normal" text-anchor="start">unbinned</text></g>
<g><title>rename_postdastool</title>
<polygon points="137.8,1184.9 148.5,1184.9 143.1,1194.1" fill="#FFFFFF" stroke="#8A8A8A" stroke-width="2.0" stroke-linejoin="round"/>
<line x1="189.4" y1="1180.9" x2="441.1" y2="1180.9" stroke="#111111" stroke-width="1"/>
<text x="189.4" y="1194.2" font-family="Arial" font-size="13" fill="#111111" font-weight="600" text-anchor="start">rename_postdastool</text></g>
<g><title>rename_postdastool::ch_refined_bins</title>
<circle cx="126.2" cy="1220.7" r="4.7" fill="#FFFFFF" stroke="#8A8A8A" stroke-width="1.3"/>
<text x="199.8" y="1215.2" font-family="Arial" font-size="6.5" fill="#7A7A7A" text-anchor="start">rename_postdastool</text>
<text x="199.8" y="1225.4" font-family="Arial" font-size="13" fill="#7A7A7A" font-weight="normal" text-anchor="start">ch_refined_bins</text></g>
<g><title>rename_postdastool::ch_refined_unbins</title>
<circle cx="143.1" cy="1251.9" r="4.7" fill="#FFFFFF" stroke="#8A8A8A" stroke-width="1.3"/>
<text x="199.8" y="1246.4" font-family="Arial" font-size="6.5" fill="#7A7A7A" text-anchor="start">rename_postdastool</text>
<text x="199.8" y="1256.6" font-family="Arial" font-size="13" fill="#7A7A7A" font-weight="normal" text-anchor="start">ch_refined_unbins</text></g>
<g><title>mag_depths</title>
<polygon points="154.7,1278.5 165.4,1278.5 160.0,1287.7" fill="#FFFFFF" stroke="#8A8A8A" stroke-width="2.0" stroke-linejoin="round"/>
<line x1="189.4" y1="1274.5" x2="441.1" y2="1274.5" stroke="#111111" stroke-width="1"/>
<text x="189.4" y="1287.8" font-family="Arial" font-size="13" fill="#111111" font-weight="600" text-anchor="start">mag_depths</text></g>
<g><title>mag_depths::ch_mag_depth_out</title>
<circle cx="160.0" cy="1314.3" r="4.7" fill="#FFFFFF" stroke="#8A8A8A" stroke-width="1.3"/>
<text x="199.8" y="1308.8" font-family="Arial" font-size="6.5" fill="#7A7A7A" text-anchor="start">mag_depths</text>
<text x="199.8" y="1319.0" font-family="Arial" font-size="13" fill="#7A7A7A" font-weight="normal" text-anchor="start">ch_mag_depth_out</text></g>
<g><title>checkm2_predict</title>
<polygon points="104.0,1340.9 114.7,1340.9 109.3,1350.1" fill="#FFFFFF" stroke="#19D3F3" stroke-width="2.0" stroke-linejoin="round"/>
<line x1="189.4" y1="1336.9" x2="441.1" y2="1336.9" stroke="#111111" stroke-width="1"/>
<text x="189.4" y="1350.2" font-family="Arial" font-size="13" fill="#111111" font-weight="600" text-anchor="start">checkm2_predict</text></g>
<g><title>checkm2_predict::ch_checkm2_summaries</title>
<circle cx="109.3" cy="1376.7" r="4.7" fill="#FFFFFF" stroke="#19D3F3" stroke-width="1.3"/>
<text x="199.8" y="1371.2" font-family="Arial" font-size="6.5" fill="#7A7A7A" text-anchor="start">checkm2_predict</text>
<text x="199.8" y="1381.4" font-family="Arial" font-size="13" fill="#7A7A7A" font-weight="normal" text-anchor="start">ch_checkm2_summaries</text></g>
<g><title>concat_checkm2_tsv</title>
<polygon points="104.0,1403.3 114.7,1403.3 109.3,1412.5" fill="#FFFFFF" stroke="#8A8A8A" stroke-width="2.0" stroke-linejoin="round"/>
<line x1="189.4" y1="1399.3" x2="441.1" y2="1399.3" stroke="#111111" stroke-width="1"/>
<text x="189.4" y="1412.6" font-family="Arial" font-size="13" fill="#111111" font-weight="600" text-anchor="start">concat_checkm2_tsv</text></g>
<g><title>concat_checkm2_tsv::ch_checkm2_summary</title>
<circle cx="109.3" cy="1439.1" r="4.7" fill="#FFFFFF" stroke="#8A8A8A" stroke-width="1.3"/>
<text x="199.8" y="1433.6" font-family="Arial" font-size="6.5" fill="#7A7A7A" text-anchor="start">concat_checkm2_tsv</text>
<text x="199.8" y="1443.8" font-family="Arial" font-size="13" fill="#7A7A7A" font-weight="normal" text-anchor="start">ch_checkm2_summary</text></g>
<g><title>mag_depths_summary</title>
<polygon points="154.7,1465.7 165.4,1465.7 160.0,1474.9" fill="#FFFFFF" stroke="#8A8A8A" stroke-width="2.0" stroke-linejoin="round"/>
<line x1="189.4" y1="1461.7" x2="441.1" y2="1461.7" stroke="#111111" stroke-width="1"/>
<text x="189.4" y="1475.0" font-family="Arial" font-size="13" fill="#111111" font-weight="600" text-anchor="start">mag_depths_summary</text></g>
<g><title>mag_depths_summary::ch_input_for_binsummary</title>
<circle cx="160.0" cy="1501.5" r="4.7" fill="#FFFFFF" stroke="#8A8A8A" stroke-width="1.3"/>
<text x="199.8" y="1496.0" font-family="Arial" font-size="6.5" fill="#7A7A7A" text-anchor="start">mag_depths_summary</text>
<text x="199.8" y="1506.2" font-family="Arial" font-size="13" fill="#7A7A7A" font-weight="normal" text-anchor="start">ch_input_for_binsummary</text></g>
<g><title>bin_summary</title>
<polygon points="154.7,1528.1 165.4,1528.1 160.0,1537.3" fill="#FFFFFF" stroke="#8A8A8A" stroke-width="2.0" stroke-linejoin="round"/>
<line x1="189.4" y1="1524.1" x2="441.1" y2="1524.1" stroke="#111111" stroke-width="1"/>
<text x="189.4" y="1537.4" font-family="Arial" font-size="13" fill="#111111" font-weight="600" text-anchor="start">bin_summary</text></g>
<g><title>bin_summary::out</title>
<circle cx="160.0" cy="1563.9" r="5.3" fill="#8A8A8A" stroke="#2B2B2B" stroke-width="1.3"/>
<text x="199.8" y="1558.4" font-family="Arial" font-size="6.5" fill="#7A7A7A" text-anchor="start">bin_summary</text>
<text x="199.8" y="1568.6" font-family="Arial" font-size="13" fill="#7A7A7A" font-weight="normal" text-anchor="start">out</text></g>
</svg>
