<?xml version="1.0" encoding="UTF-8" standalone="no"?>
<svg xmlns="http://www.w3.org/2000/svg" xmlns:xlink="http://www.w3.org/1999/xlink" width="365" height="1069" viewBox="0 0 365 1069">
<g fill="none" stroke="#666666" stroke-width="1.4" stroke-linejoin="round" stroke-linecap="butt">
<path d="M 109.3,39.7 L 109.3,42.2 L 109.3,73.5 L 109.3,121.5 L 109.3,124.0"/>
<path d="M 109.3,133.4 L 109.3,152.8 L 109.3,155.3"/>
<path d="M 109.3,164.5 L 109.3,186.4"/>
<path d="M 109.3,195.8 L 109.3,215.2 L 109.3,217.7"/>
<path d="M 109.3,226.9 L 109.3,248.8"/>
<path d="M 109.3,258.2 L 109.3,260.6 L 109.3,339.9 L 109.3,342.5"/>
<path d="M 109.3,351.7 L 109.3,373.6"/>
<path d="M 109.3,383.0 L 109.3,385.4 L 109.3,541.5 L 109.3,714.4 L 109.3,716.9"/>
<path d="M 109.3,726.1 L 109.3,728.6 L 109.3,778.6"/>
<path d="M 109.3,789.2 L 109.3,808.0 L 109.3,810.5"/>
<path d="M 109.3,819.7 L 109.3,841.0"/>
<path d="M 126.2,61.6 L 126.2,59.1 A 8.4,8.4 0 0 0 117.8,50.7 A 8.4,8.4 0 0 1 109.3,42.2"/>
<path d="M 126.2,71.0 L 126.2,479.1 L 126.2,635.0 L 126.2,791.0 L 126.2,995.1 L 126.2,997.7"/>
<path d="M 126.2,1006.9 L 126.2,1028.2"/>
<path d="M 41.7,92.8 L 41.7,90.3 A 8.5,8.5 0 0 1 50.2,81.9 L 100.9,81.9 A 8.5,8.5 0 0 0 109.3,73.5"/>
<path d="M 41.7,102.2 L 41.7,104.7 L 41.7,135.8 L 41.7,198.2 L 41.7,260.6 L 41.7,323.1 L 41.7,385.4 L 41.7,541.5 L 41.7,697.5 L 41.7,853.5 A 8.5,8.5 0 0 0 50.2,861.9"/>
<path d="M 75.5,404.9 L 75.5,402.4 A 8.4,8.4 0 0 0 67.1,393.9 L 50.2,393.9 A 8.5,8.5 0 0 1 41.7,385.4"/>
<path d="M 75.5,414.1 L 75.5,416.6 L 75.5,466.6"/>
<path d="M 75.5,477.2 L 75.5,495.9 L 75.5,498.5"/>
<path d="M 75.5,507.7 L 75.5,529.0"/>
<path d="M 75.5,591.4 L 75.5,589.5 A 8.5,8.5 0 0 1 84.0,581.1 A 8.5,8.5 0 0 0 92.4,572.6"/>
<path d="M 75.5,602.0 L 75.5,870.4 L 75.5,872.9"/>
<path d="M 75.5,882.1 L 75.5,884.6 L 75.5,915.9 L 75.5,965.8"/>
<path d="M 75.5,976.4 L 75.5,978.2 A 8.5,8.5 0 0 0 84.0,986.7 L 117.8,986.7 A 8.5,8.5 0 0 1 126.2,995.1"/>
<path d="M 92.4,560.9 L 92.4,558.4 A 8.5,8.5 0 0 0 84.0,549.9 L 67.1,549.9 L 50.2,549.9 A 8.5,8.5 0 0 1 41.7,541.5"/>
<path d="M 92.4,570.1 L 92.4,572.6 L 92.4,622.6"/>
<path d="M 92.4,633.2 L 92.4,652.0 L 92.4,654.5"/>
<path d="M 92.4,663.7 L 92.4,685.0"/>
<path d="M 92.4,747.4 L 92.4,745.5 A 8.5,8.5 0 0 1 100.9,737.1 A 8.5,8.5 0 0 0 109.3,728.6"/>
<path d="M 92.4,758.0 L 92.4,853.5 A 8.5,8.5 0 0 1 84.0,861.9 A 8.5,8.5 0 0 0 75.5,870.4"/>
<path d="M 92.4,903.4 L 92.4,901.5 A 8.5,8.5 0 0 0 84.0,893.1 A 8.5,8.5 0 0 1 75.5,884.6"/>
<path d="M 92.4,934.6 L 92.4,932.8 A 8.5,8.5 0 0 0 84.0,924.3 A 8.5,8.5 0 0 1 75.5,915.9"/>
<path d="M 58.6,280.1 L 58.6,277.6 A 8.4,8.4 0 0 0 50.2,269.1 A 8.4,8.4 0 0 1 41.7,260.6"/>
<path d="M 58.6,289.3 L 58.6,310.6"/>
<path d="M 58.6,321.2 L 58.6,323.1 L 58.6,385.4 L 58.6,541.5 L 58.6,697.5 L 58.6,853.5 A 8.4,8.4 0 0 0 67.1,861.9"/>
<path d="M 24.8,435.4 L 24.8,433.6 A 8.5,8.5 0 0 1 33.3,425.1 L 67.1,425.1 A 8.5,8.5 0 0 0 75.5,416.6"/>
<path d="M 24.8,446.0 L 24.8,853.5 A 8.5,8.5 0 0 0 33.3,861.9 L 50.2,861.9 L 67.1,861.9 A 8.5,8.5 0 0 1 75.5,870.4"/>
<path d="M 126.2,479.1 A 8.5,8.5 0 0 1 117.8,487.5 L 84.0,487.5 A 8.5,8.5 0 0 0 75.5,495.9"/>
<path d="M 126.2,635.0 A 8.5,8.5 0 0 1 117.8,643.5 L 100.9,643.5 A 8.5,8.5 0 0 0 92.4,652.0"/>
<path d="M 126.2,791.0 A 8.4,8.4 0 0 1 117.8,799.5 A 8.4,8.4 0 0 0 109.3,808.0"/>
<path d="M 41.7,104.7 A 8.5,8.5 0 0 0 50.2,113.1 L 100.9,113.1 A 8.5,8.5 0 0 1 109.3,121.5"/>
<path d="M 41.7,135.8 A 8.5,8.5 0 0 0 50.2,144.3 L 100.9,144.3 A 8.5,8.5 0 0 1 109.3,152.8"/>
<path d="M 41.7,198.2 A 8.5,8.5 0 0 0 50.2,206.7 L 100.9,206.7 A 8.5,8.5 0 0 1 109.3,215.2"/>
<path d="M 41.7,323.1 A 8.5,8.5 0 0 0 50.2,331.5 L 67.1,331.5 L 100.9,331.5 A 8.5,8.5 0 0 1 109.3,339.9"/>
<path d="M 41.7,697.5 A 8.5,8.5 0 0 0 50.2,705.9 L 67.1,705.9 L 100.9,705.9 A 8.5,8.5 0 0 1 109.3,714.4"/>
<path d="M 109.3,260.6 A 8.5,8.5 0 0 1 100.9,269.1 L 67.1,269.1 A 8.5,8.5 0 0 0 58.6,277.6"/>
<path d="M 58.6,323.1 A 8.5,8.5 0 0 0 67.1,331.5"/>
<path d="M 58.6,385.4 A 8.4,8.4 0 0 0 67.1,393.9"/>
<path d="M 58.6,541.5 A 8.5,8.5 0 0 0 67.1,549.9"/>
<path d="M 58.6,697.5 A 8.5,8.5 0 0 0 67.1,705.9"/>
<path d="M 109.3,385.4 A 8.5,8.5 0 0 1 100.9,393.9 L 84.0,393.9 A 8.5,8.5 0 0 0 75.5,402.4"/>
<path d="M 109.3,541.5 A 8.5,8.5 0 0 1 100.9,549.9 A 8.5,8.5 0 0 0 92.4,558.4"/>
</g>
<g><title>given</title>
<polygon points="104.0,30.5 114.7,30.5 109.3,39.7" fill="#FFFFFF" stroke="#2B2B2B" stroke-width="2.0" stroke-linejoin="round"/>
<line x1="138.7" y1="26.5" x2="345.1" y2="26.5" stroke="#111111" stroke-width="1"/>
<text x="138.7" y="39.8" font-family="Arial" font-size="13" fill="#111111" font-weight="600" text-anchor="start">given</text></g>
<g><title>e2::checkm2_database</title>
<circle cx="126.2" cy="66.3" r="4.7" fill="#FFFFFF" stroke="#6E6E6E" stroke-width="1.3"/>
<text x="149.1" y="60.8" font-family="Arial" font-size="6.5" fill="#7A7A7A" text-anchor="start">e2</text>
<text x="149.1" y="71.0" font-family="Arial" font-size="13" fill="#7A7A7A" font-weight="normal" text-anchor="start">checkm2_database</text></g>
<g><title>e2::read_metadata</title>
<circle cx="41.7" cy="97.5" r="4.7" fill="#FFFFFF" stroke="#6E6E6E" stroke-width="1.3"/>
<text x="149.1" y="92.0" font-family="Arial" font-size="6.5" fill="#7A7A7A" text-anchor="start">e2</text>
<text x="149.1" y="102.2" font-family="Arial" font-size="13" fill="#7A7A7A" font-weight="normal" text-anchor="start">read_metadata</text></g>
<g><title>e2::long_reads</title>
<circle cx="109.3" cy="128.7" r="4.7" fill="#FFFFFF" stroke="#6E6E6E" stroke-width="1.3"/>
<text x="149.1" y="123.2" font-family="Arial" font-size="6.5" fill="#7A7A7A" text-anchor="start">e2</text>
<text x="149.1" y="133.4" font-family="Arial" font-size="13" fill="#7A7A7A" font-weight="normal" text-anchor="start">long_reads</text></g>
<g><title>porechop_abi</title>
<polygon points="104.0,155.3 114.7,155.3 109.3,164.5" fill="#FFFFFF" stroke="#2B2B2B" stroke-width="2.0" stroke-linejoin="round"/>
<line x1="138.7" y1="151.3" x2="345.1" y2="151.3" stroke="#111111" stroke-width="1"/>
<text x="138.7" y="164.6" font-family="Arial" font-size="13" fill="#111111" font-weight="600" text-anchor="start">porechop_abi</text></g>
<g><title>e2::adapter_trimmed_long_reads</title>
<circle cx="109.3" cy="191.1" r="4.7" fill="#FFFFFF" stroke="#6E6E6E" stroke-width="1.3"/>
<text x="149.1" y="185.6" font-family="Arial" font-size="6.5" fill="#7A7A7A" text-anchor="start">e2</text>
<text x="149.1" y="195.8" font-family="Arial" font-size="13" fill="#7A7A7A" font-weight="normal" text-anchor="start">adapter_trimmed_long_reads</text></g>
<g><title>chopper</title>
<polygon points="104.0,217.7 114.7,217.7 109.3,226.9" fill="#FFFFFF" stroke="#2B2B2B" stroke-width="2.0" stroke-linejoin="round"/>
<line x1="138.7" y1="213.7" x2="345.1" y2="213.7" stroke="#111111" stroke-width="1"/>
<text x="138.7" y="227.0" font-family="Arial" font-size="13" fill="#111111" font-weight="600" text-anchor="start">chopper</text></g>
<g><title>e2::filtered_long_reads</title>
<circle cx="109.3" cy="253.5" r="4.7" fill="#FFFFFF" stroke="#6E6E6E" stroke-width="1.3"/>
<text x="149.1" y="248.0" font-family="Arial" font-size="6.5" fill="#7A7A7A" text-anchor="start">e2</text>
<text x="149.1" y="258.2" font-family="Arial" font-size="13" fill="#7A7A7A" font-weight="normal" text-anchor="start">filtered_long_reads</text></g>
<g><title>flye</title>
<polygon points="53.3,280.1 64.0,280.1 58.6,289.3" fill="#FFFFFF" stroke="#2B2B2B" stroke-width="2.0" stroke-linejoin="round"/>
<line x1="138.7" y1="276.1" x2="345.1" y2="276.1" stroke="#111111" stroke-width="1"/>
<text x="138.7" y="289.4" font-family="Arial" font-size="13" fill="#111111" font-weight="600" text-anchor="start">flye</text></g>
<g><title>e2::flye_assembly</title>
<circle cx="58.6" cy="315.9" r="5.3" fill="#212121" stroke="#2B2B2B" stroke-width="1.3"/>
<text x="149.1" y="310.4" font-family="Arial" font-size="6.5" fill="#7A7A7A" text-anchor="start">e2</text>
<text x="149.1" y="320.6" font-family="Arial" font-size="13" fill="#7A7A7A" font-weight="normal" text-anchor="start">flye_assembly</text></g>
<g><title>minimap2_binning_bam</title>
<polygon points="104.0,342.5 114.7,342.5 109.3,351.7" fill="#FFFFFF" stroke="#2B2B2B" stroke-width="2.0" stroke-linejoin="round"/>
<line x1="138.7" y1="338.5" x2="345.1" y2="338.5" stroke="#111111" stroke-width="1"/>
<text x="138.7" y="351.8" font-family="Arial" font-size="13" fill="#111111" font-weight="600" text-anchor="start">minimap2_binning_bam</text></g>
<g><title>e2::binning_bam</title>
<circle cx="109.3" cy="378.3" r="4.7" fill="#FFFFFF" stroke="#6E6E6E" stroke-width="1.3"/>
<text x="149.1" y="372.8" font-family="Arial" font-size="6.5" fill="#7A7A7A" text-anchor="start">e2</text>
<text x="149.1" y="383.0" font-family="Arial" font-size="13" fill="#7A7A7A" font-weight="normal" text-anchor="start">binning_bam</text></g>
<g><title>comebin</title>
<polygon points="70.2,404.9 80.9,404.9 75.5,414.1" fill="#FFFFFF" stroke="#2B2B2B" stroke-width="2.0" stroke-linejoin="round"/>
<line x1="138.7" y1="400.9" x2="345.1" y2="400.9" stroke="#111111" stroke-width="1"/>
<text x="138.7" y="414.2" font-family="Arial" font-size="13" fill="#111111" font-weight="600" text-anchor="start">comebin</text></g>
<g><title>e2::comebin_contig_to_bin</title>
<circle cx="24.8" cy="440.7" r="5.3" fill="#212121" stroke="#2B2B2B" stroke-width="1.3"/>
<text x="149.1" y="435.2" font-family="Arial" font-size="6.5" fill="#7A7A7A" text-anchor="start">e2</text>
<text x="149.1" y="445.4" font-family="Arial" font-size="13" fill="#7A7A7A" font-weight="normal" text-anchor="start">comebin_contig_to_bin</text></g>
<g><title>e2::comebin_bin</title>
<circle cx="75.5" cy="471.9" r="5.3" fill="#212121" stroke="#2B2B2B" stroke-width="1.3"/>
<text x="149.1" y="466.4" font-family="Arial" font-size="6.5" fill="#7A7A7A" text-anchor="start">e2</text>
<text x="149.1" y="476.6" font-family="Arial" font-size="13" fill="#7A7A7A" font-weight="normal" text-anchor="start">comebin_bin</text></g>
<g><title>checkm2</title>
<polygon points="70.2,498.5 80.9,498.5 75.5,507.7" fill="#FFFFFF" stroke="#2B2B2B" stroke-width="2.0" stroke-linejoin="round"/>
<line x1="138.7" y1="494.5" x2="345.1" y2="494.5" stroke="#111111" stroke-width="1"/>
<text x="138.7" y="507.8" font-family="Arial" font-size="13" fill="#111111" font-weight="600" text-anchor="start">checkm2</text></g>
<g><title>e2::checkm2_quality</title>
<circle cx="75.5" cy="534.3" r="5.3" fill="#212121" stroke="#2B2B2B" stroke-width="1.3"/>
<text x="149.1" y="528.8" font-family="Arial" font-size="6.5" fill="#7A7A7A" text-anchor="start">e2</text>
<text x="149.1" y="539.0" font-family="Arial" font-size="13" fill="#7A7A7A" font-weight="normal" text-anchor="start">checkm2_quality</text></g>
<g><title>semibin2</title>
<polygon points="87.1,560.9 97.8,560.9 92.4,570.1" fill="#FFFFFF" stroke="#2B2B2B" stroke-width="2.0" stroke-linejoin="round"/>
<line x1="138.7" y1="556.9" x2="345.1" y2="556.9" stroke="#111111" stroke-width="1"/>
<text x="138.7" y="570.2" font-family="Arial" font-size="13" fill="#111111" font-weight="600" text-anchor="start">semibin2</text></g>
<g><title>e2::semibin2_contig_to_bin</title>
<circle cx="75.5" cy="596.7" r="5.3" fill="#212121" stroke="#2B2B2B" stroke-width="1.3"/>
<text x="149.1" y="591.2" font-family="Arial" font-size="6.5" fill="#7A7A7A" text-anchor="start">e2</text>
<text x="149.1" y="601.4" font-family="Arial" font-size="13" fill="#7A7A7A" font-weight="normal" text-anchor="start">semibin2_contig_to_bin</text></g>
<g><title>e2::semibin2_bin</title>
<circle cx="92.4" cy="627.9" r="5.3" fill="#212121" stroke="#2B2B2B" stroke-width="1.3"/>
<text x="149.1" y="622.4" font-family="Arial" font-size="6.5" fill="#7A7A7A" text-anchor="start">e2</text>
<text x="149.1" y="632.6" font-family="Arial" font-size="13" fill="#7A7A7A" font-weight="normal" text-anchor="start">semibin2_bin</text></g>
<g><title>checkm2</title>
<polygon points="87.1,654.5 97.8,654.5 92.4,663.7" fill="#FFFFFF" stroke="#2B2B2B" stroke-width="2.0" stroke-linejoin="round"/>
<line x1="138.7" y1="650.5" x2="345.1" y2="650.5" stroke="#111111" stroke-width="1"/>
<text x="138.7" y="663.8" font-family="Arial" font-size="13" fill="#111111" font-weight="600" text-anchor="start">checkm2</text></g>
<g><title>e2::checkm2_quality</title>
<circle cx="92.4" cy="690.3" r="5.3" fill="#212121" stroke="#2B2B2B" stroke-width="1.3"/>
<text x="149.1" y="684.8" font-family="Arial" font-size="6.5" fill="#7A7A7A" text-anchor="start">e2</text>
<text x="149.1" y="695.0" font-family="Arial" font-size="13" fill="#7A7A7A" font-weight="normal" text-anchor="start">checkm2_quality</text></g>
<g><title>metabat2</title>
<polygon points="104.0,716.9 114.7,716.9 109.3,726.1" fill="#FFFFFF" stroke="#2B2B2B" stroke-width="2.0" stroke-linejoin="round"/>
<line x1="138.7" y1="712.9" x2="345.1" y2="712.9" stroke="#111111" stroke-width="1"/>
<text x="138.7" y="726.2" font-family="Arial" font-size="13" fill="#111111" font-weight="600" text-anchor="start">metabat2</text></g>
<g><title>e2::metabat2_contig_to_bin</title>
<circle cx="92.4" cy="752.7" r="5.3" fill="#212121" stroke="#2B2B2B" stroke-width="1.3"/>
<text x="149.1" y="747.2" font-family="Arial" font-size="6.5" fill="#7A7A7A" text-anchor="start">e2</text>
<text x="149.1" y="757.4" font-family="Arial" font-size="13" fill="#7A7A7A" font-weight="normal" text-anchor="start">metabat2_contig_to_bin</text></g>
<g><title>e2::metabat2_bin</title>
<circle cx="109.3" cy="783.9" r="5.3" fill="#212121" stroke="#2B2B2B" stroke-width="1.3"/>
<text x="149.1" y="778.4" font-family="Arial" font-size="6.5" fill="#7A7A7A" text-anchor="start">e2</text>
<text x="149.1" y="788.6" font-family="Arial" font-size="13" fill="#7A7A7A" font-weight="normal" text-anchor="start">metabat2_bin</text></g>
<g><title>checkm2</title>
<polygon points="104.0,810.5 114.7,810.5 109.3,819.7" fill="#FFFFFF" stroke="#2B2B2B" stroke-width="2.0" stroke-linejoin="round"/>
<line x1="138.7" y1="806.5" x2="345.1" y2="806.5" stroke="#111111" stroke-width="1"/>
<text x="138.7" y="819.8" font-family="Arial" font-size="13" fill="#111111" font-weight="600" text-anchor="start">checkm2</text></g>
<g><title>e2::checkm2_quality</title>
<circle cx="109.3" cy="846.3" r="5.3" fill="#212121" stroke="#2B2B2B" stroke-width="1.3"/>
<text x="149.1" y="840.8" font-family="Arial" font-size="6.5" fill="#7A7A7A" text-anchor="start">e2</text>
<text x="149.1" y="851.0" font-family="Arial" font-size="13" fill="#7A7A7A" font-weight="normal" text-anchor="start">checkm2_quality</text></g>
<g><title>das_tool</title>
<polygon points="70.2,872.9 80.9,872.9 75.5,882.1" fill="#FFFFFF" stroke="#2B2B2B" stroke-width="2.0" stroke-linejoin="round"/>
<line x1="138.7" y1="868.9" x2="345.1" y2="868.9" stroke="#111111" stroke-width="1"/>
<text x="138.7" y="882.2" font-family="Arial" font-size="13" fill="#111111" font-weight="600" text-anchor="start">das_tool</text></g>
<g><title>e2::das_tool_summary</title>
<circle cx="92.4" cy="908.7" r="5.3" fill="#212121" stroke="#2B2B2B" stroke-width="1.3"/>
<text x="149.1" y="903.2" font-family="Arial" font-size="6.5" fill="#7A7A7A" text-anchor="start">e2</text>
<text x="149.1" y="913.4" font-family="Arial" font-size="13" fill="#7A7A7A" font-weight="normal" text-anchor="start">das_tool_summary</text></g>
<g><title>e2::das_tool_contig_to_bin</title>
<circle cx="92.4" cy="939.9" r="5.3" fill="#212121" stroke="#2B2B2B" stroke-width="1.3"/>
<text x="149.1" y="934.4" font-family="Arial" font-size="6.5" fill="#7A7A7A" text-anchor="start">e2</text>
<text x="149.1" y="944.6" font-family="Arial" font-size="13" fill="#7A7A7A" font-weight="normal" text-anchor="start">das_tool_contig_to_bin</text></g>
<g><title>e2::das_tool_bin</title>
<circle cx="75.5" cy="971.1" r="5.3" fill="#212121" stroke="#2B2B2B" stroke-width="1.3"/>
<text x="149.1" y="965.6" font-family="Arial" font-size="6.5" fill="#7A7A7A" text-anchor="start">e2</text>
<text x="149.1" y="975.8" font-family="Arial" font-size="13" fill="#7A7A7A" font-weight="normal" text-anchor="start">das_tool_bin</text></g>
<g><title>checkm2</title>
<polygon points="120.9,997.7 131.6,997.7 126.2,1006.9" fill="#FFFFFF" stroke="#2B2B2B" stroke-width="2.0" stroke-linejoin="round"/>
<line x1="138.7" y1="993.7" x2="345.1" y2="993.7" stroke="#111111" stroke-width="1"/>
<text x="138.7" y="1007.0" font-family="Arial" font-size="13" fill="#111111" font-weight="600" text-anchor="start">checkm2</text></g>
<g><title>e2::checkm2_quality</title>
<circle cx="126.2" cy="1033.5" r="5.3" fill="#212121" stroke="#2B2B2B" stroke-width="1.3"/>
<text x="149.1" y="1028.0" font-family="Arial" font-size="6.5" fill="#7A7A7A" text-anchor="start">e2</text>
<text x="149.1" y="1038.2" font-family="Arial" font-size="13" fill="#7A7A7A" font-weight="normal" text-anchor="start">checkm2_quality</text></g>
</svg>
