<?xml version="1.0" encoding="UTF-8" standalone="no"?>
<svg xmlns="http://www.w3.org/2000/svg" xmlns:xlink="http://www.w3.org/1999/xlink" width="385" height="757" viewBox="0 0 385 757">
<rect width="385" height="757" fill="#FFFFFF"/>
<g fill="none" stroke="#666666" stroke-width="1.4" stroke-linejoin="round" stroke-linecap="butt">
<path d="M 126.2,39.7 L 126.2,42.2 L 126.2,73.5 L 126.2,104.7 L 126.2,135.8 L 126.2,167.1 L 126.2,198.2 L 126.2,229.4 L 126.2,260.6 L 126.2,308.8 L 126.2,311.2" stroke="#636EFA"/>
<path d="M 126.2,320.6 L 126.2,323.1 L 126.2,603.9 A 8.5,8.5 0 0 1 117.8,612.3" stroke="#636EFA"/>
<path d="M 176.9,61.6 L 176.9,59.1 A 8.5,8.5 0 0 0 168.5,50.7 L 134.7,50.7 A 8.5,8.5 0 0 1 126.2,42.2" stroke="#636EFA"/>
<path d="M 176.9,71.0 L 176.9,666.2 A 8.5,8.5 0 0 1 168.5,674.7 L 84.0,674.7 A 8.5,8.5 0 0 0 75.5,683.1 L 75.5,685.7" stroke="#636EFA"/>
<path d="M 160.0,92.8 L 160.0,90.3 A 8.5,8.5 0 0 0 151.6,81.9 L 134.7,81.9 A 8.5,8.5 0 0 1 126.2,73.5" stroke="#636EFA"/>
<path d="M 160.0,102.2 L 160.0,603.9 A 8.5,8.5 0 0 1 151.6,612.3 L 134.7,612.3 L 117.8,612.3 L 100.9,612.3 A 8.5,8.5 0 0 0 92.4,620.8" stroke="#636EFA"/>
<path d="M 24.8,124.0 L 24.8,121.5 A 8.5,8.5 0 0 1 33.3,113.1 L 117.8,113.1 A 8.5,8.5 0 0 0 126.2,104.7" stroke="#636EFA"/>
<path d="M 24.8,133.4 L 24.8,464.8 L 24.8,467.3" stroke="#636EFA"/>
<path d="M 24.8,476.5 L 24.8,498.4" stroke="#636EFA"/>
<path d="M 24.8,507.8 L 24.8,666.2 A 8.5,8.5 0 0 0 33.3,674.7 L 50.2,674.7 L 67.1,674.7 A 8.5,8.5 0 0 1 75.5,683.1" stroke="#636EFA"/>
<path d="M 109.3,155.2 L 109.3,152.8 A 8.4,8.4 0 0 1 117.8,144.3 A 8.4,8.4 0 0 0 126.2,135.8" stroke="#636EFA"/>
<path d="M 109.3,164.6 L 109.3,167.1 L 109.3,198.2 L 109.3,229.4 L 109.3,260.6 L 109.3,291.9 A 8.4,8.4 0 0 0 117.8,300.3" stroke="#636EFA"/>
<path d="M 109.3,560.8 L 109.3,558.4 A 8.5,8.5 0 0 0 100.9,549.9 L 84.0,549.9 A 8.5,8.5 0 0 1 75.5,541.5" stroke="#EF553B"/>
<path d="M 58.6,186.4 L 58.6,183.9 A 8.5,8.5 0 0 1 67.1,175.5 L 100.9,175.5 L 117.8,175.5 A 8.5,8.5 0 0 0 126.2,167.1" stroke="#636EFA"/>
<path d="M 58.6,195.8 L 58.6,198.2 L 58.6,229.4 L 58.6,260.6 L 58.6,291.9 L 58.6,323.1 L 58.6,385.4 L 58.6,447.9 L 58.6,510.2 L 58.6,603.9 L 58.6,666.2 A 8.4,8.4 0 0 0 67.1,674.7" stroke="#636EFA"/>
<path d="M 143.1,217.6 L 143.1,215.2 A 8.5,8.5 0 0 0 134.7,206.7 L 117.8,206.7 L 67.1,206.7 A 8.5,8.5 0 0 1 58.6,198.2" stroke="#636EFA"/>
<path d="M 143.1,227.0 L 143.1,229.4 L 143.1,260.6 L 143.1,291.9 L 143.1,323.1 L 143.1,603.9 A 8.5,8.5 0 0 1 134.7,612.3" stroke="#636EFA"/>
<path d="M 41.7,248.8 L 41.7,246.3 A 8.5,8.5 0 0 1 50.2,237.9 L 100.9,237.9 L 117.8,237.9 L 134.7,237.9 A 8.5,8.5 0 0 0 143.1,229.4" stroke="#636EFA"/>
<path d="M 41.7,258.2 L 41.7,339.9 L 41.7,342.5" stroke="#636EFA"/>
<path d="M 41.7,351.7 L 41.7,373.6" stroke="#636EFA"/>
<path d="M 41.7,383.0 L 41.7,447.9 L 41.7,666.2 A 8.5,8.5 0 0 0 50.2,674.7" stroke="#636EFA"/>
<path d="M 92.4,280.0 L 92.4,277.6 A 8.5,8.5 0 0 1 100.9,269.1 L 117.8,269.1 L 134.7,269.1 A 8.5,8.5 0 0 0 143.1,260.6" stroke="#636EFA"/>
<path d="M 92.4,289.4 L 92.4,402.4 L 92.4,404.9" stroke="#636EFA"/>
<path d="M 92.4,414.1 L 92.4,436.0" stroke="#636EFA"/>
<path d="M 92.4,445.4 L 92.4,447.9 L 92.4,510.2 L 92.4,620.8" stroke="#636EFA"/>
<path d="M 92.4,623.3 L 92.4,620.8 A 8.5,8.5 0 0 0 84.0,612.3 A 8.5,8.5 0 0 1 75.5,603.9" stroke="#EF553B"/>
<path d="M 92.4,632.5 L 92.4,654.4" stroke="#636EFA"/>
<path d="M 92.4,663.8 L 92.4,666.2 A 8.5,8.5 0 0 1 84.0,674.7" stroke="#636EFA"/>
<path d="M 75.5,529.7 L 75.5,527.1 A 8.4,8.4 0 0 0 67.1,518.7 A 8.4,8.4 0 0 1 58.6,510.2" stroke="#636EFA"/>
<path d="M 75.5,538.9 L 75.5,541.5 L 75.5,592.0" stroke="#EF553B"/>
<path d="M 75.5,601.4 L 75.5,603.9 L 75.5,683.1" stroke="#EF553B"/>
<path d="M 75.5,694.9 L 75.5,716.2" stroke="#636EFA"/>
<path d="M 84.0,612.3 L 67.1,612.3 A 8.5,8.5 0 0 1 58.6,603.9" stroke="#636EFA"/>
<path d="M 126.2,198.2 A 8.4,8.4 0 0 0 134.7,206.7" stroke="#636EFA"/>
<path d="M 126.2,229.4 A 8.5,8.5 0 0 1 117.8,237.9" stroke="#636EFA"/>
<path d="M 126.2,260.6 A 8.5,8.5 0 0 1 117.8,269.1" stroke="#636EFA"/>
<path d="M 109.3,167.1 A 8.5,8.5 0 0 1 100.9,175.5" stroke="#636EFA"/>
<path d="M 109.3,198.2 A 8.5,8.5 0 0 0 117.8,206.7" stroke="#636EFA"/>
<path d="M 109.3,229.4 A 8.5,8.5 0 0 1 100.9,237.9" stroke="#636EFA"/>
<path d="M 109.3,260.6 A 8.5,8.5 0 0 1 100.9,269.1" stroke="#636EFA"/>
<path d="M 126.2,308.8 A 8.5,8.5 0 0 0 117.8,300.3 L 67.1,300.3 A 8.5,8.5 0 0 1 58.6,291.9" stroke="#636EFA"/>
<path d="M 58.6,229.4 A 8.4,8.4 0 0 1 50.2,237.9" stroke="#636EFA"/>
<path d="M 58.6,260.6 A 8.5,8.5 0 0 0 67.1,269.1 L 84.0,269.1 A 8.5,8.5 0 0 1 92.4,277.6" stroke="#636EFA"/>
<path d="M 58.6,323.1 A 8.4,8.4 0 0 1 50.2,331.5" stroke="#636EFA"/>
<path d="M 41.7,339.9 A 8.5,8.5 0 0 1 50.2,331.5 L 117.8,331.5 L 134.7,331.5 A 8.5,8.5 0 0 0 143.1,323.1" stroke="#636EFA"/>
<path d="M 58.6,385.4 A 8.5,8.5 0 0 0 67.1,393.9 L 84.0,393.9 A 8.5,8.5 0 0 1 92.4,402.4" stroke="#636EFA"/>
<path d="M 58.6,447.9 A 8.5,8.5 0 0 1 50.2,456.3" stroke="#636EFA"/>
<path d="M 24.8,464.8 A 8.5,8.5 0 0 1 33.3,456.3 L 50.2,456.3 L 84.0,456.3 A 8.5,8.5 0 0 0 92.4,447.9" stroke="#636EFA"/>
<path d="M 143.1,291.9 A 8.4,8.4 0 0 1 134.7,300.3 A 8.4,8.4 0 0 0 126.2,308.8" stroke="#636EFA"/>
<path d="M 126.2,323.1 A 8.5,8.5 0 0 1 117.8,331.5" stroke="#636EFA"/>
<path d="M 41.7,447.9 A 8.5,8.5 0 0 1 33.3,456.3" stroke="#636EFA"/>
<path d="M 92.4,510.2 A 8.5,8.5 0 0 1 84.0,518.7 A 8.5,8.5 0 0 0 75.5,527.1" stroke="#636EFA"/>
</g>
<g><title>given</title>
<polygon points="120.9,30.5 131.6,30.5 126.2,39.7" fill="#FFFFFF" stroke="#636EFA" stroke-width="2.0" stroke-linejoin="round"/>
<line x1="189.4" y1="26.5" x2="365.7" y2="26.5" stroke="#111111" stroke-width="1"/>
<text x="189.4" y="39.8" font-family="Arial" font-size="13" fill="#111111" font-weight="600" text-anchor="start">given</text></g>
<g><title>e5::quast.env</title>
<circle cx="176.9" cy="66.3" r="4.7" fill="#FFFFFF" stroke="#636EFA" stroke-width="1.3"/>
<text x="199.8" y="60.8" font-family="Arial" font-size="6.5" fill="#7A7A7A" text-anchor="start">e5</text>
<text x="199.8" y="71.0" font-family="Arial" font-size="13" fill="#7A7A7A" font-weight="normal" text-anchor="start">quast.env</text></g>
<g><title>e5::opera_ms.env</title>
<circle cx="160.0" cy="97.5" r="4.7" fill="#FFFFFF" stroke="#636EFA" stroke-width="1.3"/>
<text x="199.8" y="92.0" font-family="Arial" font-size="6.5" fill="#7A7A7A" text-anchor="start">e5</text>
<text x="199.8" y="102.2" font-family="Arial" font-size="13" fill="#7A7A7A" font-weight="normal" text-anchor="start">opera_ms.env</text></g>
<g><title>e5::masurca.env</title>
<circle cx="24.8" cy="128.7" r="4.7" fill="#FFFFFF" stroke="#636EFA" stroke-width="1.3"/>
<text x="199.8" y="123.2" font-family="Arial" font-size="6.5" fill="#7A7A7A" text-anchor="start">e5</text>
<text x="199.8" y="133.4" font-family="Arial" font-size="13" fill="#7A7A7A" font-weight="normal" text-anchor="start">masurca.env</text></g>
<g><title>viromics::contig_study</title>
<circle cx="109.3" cy="159.9" r="4.7" fill="#FFFFFF" stroke="#636EFA" stroke-width="1.3"/>
<text x="199.8" y="154.4" font-family="Arial" font-size="6.5" fill="#7A7A7A" text-anchor="start">viromics</text>
<text x="199.8" y="164.6" font-family="Arial" font-size="13" fill="#7A7A7A" font-weight="normal" text-anchor="start">contig_study</text></g>
<g><title>sequences::read_metadata</title>
<circle cx="58.6" cy="191.1" r="4.7" fill="#FFFFFF" stroke="#636EFA" stroke-width="1.3"/>
<text x="199.8" y="185.6" font-family="Arial" font-size="6.5" fill="#7A7A7A" text-anchor="start">sequences</text>
<text x="199.8" y="195.8" font-family="Arial" font-size="13" fill="#7A7A7A" font-weight="normal" text-anchor="start">read_metadata</text></g>
<g><title>sequences::read_pair</title>
<circle cx="143.1" cy="222.3" r="4.7" fill="#FFFFFF" stroke="#636EFA" stroke-width="1.3"/>
<text x="199.8" y="216.8" font-family="Arial" font-size="6.5" fill="#7A7A7A" text-anchor="start">sequences</text>
<text x="199.8" y="227.0" font-family="Arial" font-size="13" fill="#7A7A7A" font-weight="normal" text-anchor="start">read_pair</text></g>
<g><title>e5::long_read_platform</title>
<circle cx="41.7" cy="253.5" r="4.7" fill="#FFFFFF" stroke="#636EFA" stroke-width="1.3"/>
<text x="199.8" y="248.0" font-family="Arial" font-size="6.5" fill="#7A7A7A" text-anchor="start">e5</text>
<text x="199.8" y="258.2" font-family="Arial" font-size="13" fill="#7A7A7A" font-weight="normal" text-anchor="start">long_read_platform</text></g>
<g><title>sequences::short_reads_pe</title>
<circle cx="92.4" cy="284.7" r="4.7" fill="#FFFFFF" stroke="#636EFA" stroke-width="1.3"/>
<text x="199.8" y="279.2" font-family="Arial" font-size="6.5" fill="#7A7A7A" text-anchor="start">sequences</text>
<text x="199.8" y="289.4" font-family="Arial" font-size="13" fill="#7A7A7A" font-weight="normal" text-anchor="start">short_reads_pe</text></g>
<g><title>e3::nanopore_reads</title>
<circle cx="126.2" cy="315.9" r="4.7" fill="#FFFFFF" stroke="#636EFA" stroke-width="1.3"/>
<text x="199.8" y="310.4" font-family="Arial" font-size="6.5" fill="#7A7A7A" text-anchor="start">e3</text>
<text x="199.8" y="320.6" font-family="Arial" font-size="13" fill="#7A7A7A" font-weight="normal" text-anchor="start">nanopore_reads</text></g>
<g><title>flye</title>
<polygon points="36.4,342.5 47.1,342.5 41.7,351.7" fill="#FFFFFF" stroke="#636EFA" stroke-width="2.0" stroke-linejoin="round"/>
<line x1="189.4" y1="338.5" x2="365.7" y2="338.5" stroke="#111111" stroke-width="1"/>
<text x="189.4" y="351.8" font-family="Arial" font-size="13" fill="#111111" font-weight="600" text-anchor="start">flye</text></g>
<g><title>e5::flye_assembly</title>
<circle cx="41.7" cy="378.3" r="4.7" fill="#FFFFFF" stroke="#636EFA" stroke-width="1.3"/>
<text x="199.8" y="372.8" font-family="Arial" font-size="6.5" fill="#7A7A7A" text-anchor="start">e5</text>
<text x="199.8" y="383.0" font-family="Arial" font-size="13" fill="#7A7A7A" font-weight="normal" text-anchor="start">flye_assembly</text></g>
<g><title>bbduk_pratama</title>
<polygon points="87.1,404.9 97.8,404.9 92.4,414.1" fill="#FFFFFF" stroke="#636EFA" stroke-width="2.0" stroke-linejoin="round"/>
<line x1="189.4" y1="400.9" x2="365.7" y2="400.9" stroke="#111111" stroke-width="1"/>
<text x="189.4" y="414.2" font-family="Arial" font-size="13" fill="#111111" font-weight="600" text-anchor="start">bbduk_pratama</text></g>
<g><title>sequences::clean_short_reads</title>
<circle cx="92.4" cy="440.7" r="4.7" fill="#FFFFFF" stroke="#636EFA" stroke-width="1.3"/>
<text x="199.8" y="435.2" font-family="Arial" font-size="6.5" fill="#7A7A7A" text-anchor="start">sequences</text>
<text x="199.8" y="445.4" font-family="Arial" font-size="13" fill="#7A7A7A" font-weight="normal" text-anchor="start">clean_short_reads</text></g>
<g><title>polca</title>
<polygon points="19.5,467.3 30.2,467.3 24.8,476.5" fill="#FFFFFF" stroke="#636EFA" stroke-width="2.0" stroke-linejoin="round"/>
<line x1="189.4" y1="463.3" x2="365.7" y2="463.3" stroke="#111111" stroke-width="1"/>
<text x="189.4" y="476.6" font-family="Arial" font-size="13" fill="#111111" font-weight="600" text-anchor="start">polca</text></g>
<g><title>e5::polca_assembly</title>
<circle cx="24.8" cy="503.1" r="4.7" fill="#FFFFFF" stroke="#636EFA" stroke-width="1.3"/>
<text x="199.8" y="497.6" font-family="Arial" font-size="6.5" fill="#7A7A7A" text-anchor="start">e5</text>
<text x="199.8" y="507.8" font-family="Arial" font-size="13" fill="#7A7A7A" font-weight="normal" text-anchor="start">polca_assembly</text></g>
<g><title>megahit</title>
<polygon points="70.2,529.7 80.9,529.7 75.5,538.9" fill="#FFFFFF" stroke="#EF553B" stroke-width="2.0" stroke-linejoin="round"/>
<line x1="189.4" y1="525.7" x2="365.7" y2="525.7" stroke="#111111" stroke-width="1"/>
<text x="189.4" y="539.0" font-family="Arial" font-size="13" fill="#111111" font-weight="600" text-anchor="start">megahit</text></g>
<g><title>sequences::megahit_assembly_graph</title>
<circle cx="109.3" cy="565.5" r="4.7" fill="#FFFFFF" stroke="#EF553B" stroke-width="1.3"/>
<text x="199.8" y="560.0" font-family="Arial" font-size="6.5" fill="#7A7A7A" text-anchor="start">sequences</text>
<text x="199.8" y="570.2" font-family="Arial" font-size="13" fill="#7A7A7A" font-weight="normal" text-anchor="start">megahit_assembly_graph</text></g>
<g><title>sequences::megahit_assembly</title>
<circle cx="75.5" cy="596.7" r="4.7" fill="#FFFFFF" stroke="#EF553B" stroke-width="1.3"/>
<text x="199.8" y="591.2" font-family="Arial" font-size="6.5" fill="#7A7A7A" text-anchor="start">sequences</text>
<text x="199.8" y="601.4" font-family="Arial" font-size="13" fill="#7A7A7A" font-weight="normal" text-anchor="start">megahit_assembly</text></g>
<g><title>opera_ms</title>
<polygon points="87.1,623.3 97.8,623.3 92.4,632.5" fill="#FFFFFF" stroke="#636EFA" stroke-width="2.0" stroke-linejoin="round"/>
<line x1="189.4" y1="619.3" x2="365.7" y2="619.3" stroke="#111111" stroke-width="1"/>
<text x="189.4" y="632.6" font-family="Arial" font-size="13" fill="#111111" font-weight="600" text-anchor="start">opera_ms</text></g>
<g><title>e5::opera_ms_assembly</title>
<circle cx="92.4" cy="659.1" r="4.7" fill="#FFFFFF" stroke="#636EFA" stroke-width="1.3"/>
<text x="199.8" y="653.6" font-family="Arial" font-size="6.5" fill="#7A7A7A" text-anchor="start">e5</text>
<text x="199.8" y="663.8" font-family="Arial" font-size="13" fill="#7A7A7A" font-weight="normal" text-anchor="start">opera_ms_assembly</text></g>
<g><title>quast</title>
<polygon points="70.2,685.7 80.9,685.7 75.5,694.9" fill="#FFFFFF" stroke="#636EFA" stroke-width="2.0" stroke-linejoin="round"/>
<line x1="189.4" y1="681.7" x2="365.7" y2="681.7" stroke="#111111" stroke-width="1"/>
<text x="189.4" y="695.0" font-family="Arial" font-size="13" fill="#111111" font-weight="600" text-anchor="start">quast</text></g>
<g><title>e5::quast_report</title>
<circle cx="75.5" cy="721.5" r="5.3" fill="#636EFA" stroke="#2B2B2B" stroke-width="1.3"/>
<text x="199.8" y="716.0" font-family="Arial" font-size="6.5" fill="#7A7A7A" text-anchor="start">e5</text>
<text x="199.8" y="726.2" font-family="Arial" font-size="13" fill="#7A7A7A" font-weight="normal" text-anchor="start">quast_report</text></g>
</svg>
