<?xml version="1.0" encoding="UTF-8" standalone="no"?>
<svg xmlns="http://www.w3.org/2000/svg" xmlns:xlink="http://www.w3.org/1999/xlink" width="419" height="944" viewBox="0 0 419 944">
<rect width="419" height="944" fill="#FFFFFF"/>
<g fill="none" stroke="#666666" stroke-width="1.4" stroke-linejoin="round" stroke-linecap="butt">
<path d="M 92.4,39.7 L 92.4,42.2 L 92.4,73.5 L 92.4,104.7 L 92.4,135.8 L 92.4,167.1 L 92.4,198.2 L 92.4,229.4 L 92.4,260.6 L 92.4,291.9 L 92.4,339.9 L 92.4,342.4" stroke="#636EFA"/>
<path d="M 92.4,351.8 L 92.4,416.6 L 92.4,479.1 A 8.5,8.5 0 0 0 100.9,487.5 A 8.5,8.5 0 0 1 109.3,495.9" stroke="#EF553B"/>
<path d="M 92.4,529.6 L 92.4,527.1 A 8.5,8.5 0 0 1 100.9,518.7 A 8.5,8.5 0 0 0 109.3,510.2" stroke="#00CC96"/>
<path d="M 92.4,654.5 L 92.4,652.0 A 8.5,8.5 0 0 1 100.9,643.5 A 8.5,8.5 0 0 0 109.3,635.0" stroke="#00CC96"/>
<path d="M 92.4,663.7 L 92.4,666.2 L 92.4,716.8" stroke="#EF553B"/>
<path d="M 92.4,726.2 L 92.4,728.6 L 92.4,791.0 L 92.4,870.4" stroke="#EF553B"/>
<path d="M 92.4,872.9 L 92.4,870.4 A 8.5,8.5 0 0 1 100.9,861.9 L 117.8,861.9 L 185.4,861.9 A 8.5,8.5 0 0 0 193.8,853.5 L 193.8,791.0 L 193.8,133.4" stroke="#636EFA"/>
<path d="M 92.4,882.1 L 92.4,903.4" stroke="#636EFA"/>
<path d="M 210.7,61.6 L 210.7,59.1 A 8.5,8.5 0 0 0 202.3,50.7 L 100.9,50.7 A 8.5,8.5 0 0 1 92.4,42.2" stroke="#636EFA"/>
<path d="M 210.7,71.0 L 210.7,728.6 A 8.5,8.5 0 0 1 202.3,737.1 L 134.7,737.1 A 8.4,8.4 0 0 0 126.2,745.5" stroke="#636EFA"/>
<path d="M 24.8,92.8 L 24.8,90.3 A 8.5,8.5 0 0 1 33.3,81.9 L 84.0,81.9 A 8.5,8.5 0 0 0 92.4,73.5" stroke="#636EFA"/>
<path d="M 24.8,102.2 L 24.8,589.5" stroke="#636EFA"/>
<path d="M 24.8,592.1 L 24.8,589.5 A 8.5,8.5 0 0 1 33.3,581.1 L 50.2,581.1 L 100.9,581.1 A 8.5,8.5 0 0 0 109.3,572.6" stroke="#00CC96"/>
<path d="M 24.8,601.3 L 24.8,623.2" stroke="#636EFA"/>
<path d="M 24.8,632.6 L 24.8,791.0 L 24.8,853.5 A 8.5,8.5 0 0 0 33.3,861.9 L 50.2,861.9 L 67.1,861.9 L 84.0,861.9 A 8.5,8.5 0 0 1 92.4,870.4" stroke="#636EFA"/>
<path d="M 193.8,124.0 L 193.8,121.5 A 8.5,8.5 0 0 0 185.4,113.1 L 100.9,113.1 A 8.5,8.5 0 0 1 92.4,104.7" stroke="#636EFA"/>
<path d="M 160.0,155.2 L 160.0,152.8 A 8.5,8.5 0 0 0 151.6,144.3 L 100.9,144.3 A 8.5,8.5 0 0 1 92.4,135.8" stroke="#636EFA"/>
<path d="M 160.0,164.6 L 160.0,167.1 L 160.0,198.2 L 160.0,229.4 L 160.0,260.6 L 160.0,291.9 L 160.0,323.1 L 160.0,808.0 L 160.0,810.5" stroke="#636EFA"/>
<path d="M 160.0,819.7 L 160.0,841.0" stroke="#636EFA"/>
<path d="M 176.9,186.4 L 176.9,183.9 A 8.4,8.4 0 0 0 168.5,175.5 L 100.9,175.5 A 8.5,8.5 0 0 1 92.4,167.1" stroke="#636EFA"/>
<path d="M 176.9,195.8 L 176.9,791.0 A 8.4,8.4 0 0 1 168.5,799.5" stroke="#636EFA"/>
<path d="M 58.6,217.6 L 58.6,215.2 A 8.5,8.5 0 0 1 67.1,206.7 L 84.0,206.7 L 151.6,206.7 A 8.5,8.5 0 0 0 160.0,198.2" stroke="#636EFA"/>
<path d="M 58.6,227.0 L 58.6,229.4 L 58.6,260.6 L 58.6,291.9 L 58.6,323.1 L 58.6,354.2 L 58.6,479.1 L 58.6,572.6 L 58.6,635.0 L 58.6,728.6 L 58.6,791.0 L 58.6,853.5 A 8.5,8.5 0 0 0 67.1,861.9" stroke="#636EFA"/>
<path d="M 126.2,248.8 L 126.2,246.3 A 8.5,8.5 0 0 0 117.8,237.9 L 100.9,237.9 L 67.1,237.9 A 8.5,8.5 0 0 1 58.6,229.4" stroke="#636EFA"/>
<path d="M 126.2,258.2 L 126.2,260.6 L 126.2,291.9 L 126.2,323.1 L 126.2,354.2 L 126.2,745.5" stroke="#636EFA"/>
<path d="M 126.2,748.1 L 126.2,745.5 A 8.5,8.5 0 0 0 117.8,737.1 L 100.9,737.1 A 8.5,8.5 0 0 1 92.4,728.6" stroke="#EF553B"/>
<path d="M 126.2,757.3 L 126.2,779.2" stroke="#636EFA"/>
<path d="M 126.2,788.6 L 126.2,791.0 L 126.2,853.5 A 8.5,8.5 0 0 1 117.8,861.9" stroke="#636EFA"/>
<path d="M 41.7,280.0 L 41.7,277.6 A 8.5,8.5 0 0 1 50.2,269.1 L 84.0,269.1 L 117.8,269.1 L 151.6,269.1 A 8.5,8.5 0 0 0 160.0,260.6" stroke="#636EFA"/>
<path d="M 41.7,289.4 L 41.7,371.1 L 41.7,373.7" stroke="#636EFA"/>
<path d="M 41.7,382.9 L 41.7,404.8" stroke="#636EFA"/>
<path d="M 41.7,414.2 L 41.7,572.6 L 41.7,791.0 L 41.7,853.5 A 8.5,8.5 0 0 0 50.2,861.9" stroke="#636EFA"/>
<path d="M 143.1,311.2 L 143.1,308.8 A 8.4,8.4 0 0 0 134.7,300.3 L 100.9,300.3 L 67.1,300.3 A 8.5,8.5 0 0 1 58.6,291.9" stroke="#636EFA"/>
<path d="M 143.1,320.6 L 143.1,354.2 L 143.1,728.6 A 8.4,8.4 0 0 1 134.7,737.1" stroke="#636EFA"/>
<path d="M 100.9,737.1 L 67.1,737.1 A 8.5,8.5 0 0 1 58.6,728.6" stroke="#636EFA"/>
<path d="M 100.9,799.5 L 67.1,799.5 L 50.2,799.5 L 33.3,799.5 A 8.5,8.5 0 0 1 24.8,791.0" stroke="#636EFA"/>
<path d="M 134.7,799.5 L 100.9,799.5 A 8.5,8.5 0 0 1 92.4,791.0" stroke="#EF553B"/>
<path d="M 100.9,487.5 L 67.1,487.5 A 8.5,8.5 0 0 1 58.6,479.1" stroke="#636EFA"/>
<path d="M 109.3,436.1 L 109.3,433.6 A 8.5,8.5 0 0 0 100.9,425.1 A 8.5,8.5 0 0 1 92.4,416.6" stroke="#EF553B"/>
<path d="M 109.3,445.3 L 109.3,467.2" stroke="#EF553B"/>
<path d="M 109.3,476.6 L 109.3,495.9 L 109.3,498.5" stroke="#EF553B"/>
<path d="M 109.3,507.7 L 109.3,510.2 L 109.3,560.8" stroke="#00CC96"/>
<path d="M 109.3,570.2 L 109.3,572.6 L 109.3,635.0 L 109.3,728.6 A 8.4,8.4 0 0 0 117.8,737.1" stroke="#00CC96"/>
<path d="M 75.5,685.6 L 75.5,683.1 A 8.5,8.5 0 0 1 84.0,674.7 A 8.5,8.5 0 0 0 92.4,666.2" stroke="#EF553B"/>
<path d="M 92.4,198.2 A 8.5,8.5 0 0 1 84.0,206.7" stroke="#636EFA"/>
<path d="M 92.4,229.4 A 8.5,8.5 0 0 0 100.9,237.9" stroke="#636EFA"/>
<path d="M 92.4,260.6 A 8.5,8.5 0 0 1 84.0,269.1" stroke="#636EFA"/>
<path d="M 92.4,291.9 A 8.5,8.5 0 0 0 100.9,300.3" stroke="#636EFA"/>
<path d="M 193.8,791.0 A 8.5,8.5 0 0 1 185.4,799.5 L 168.5,799.5 A 8.4,8.4 0 0 0 160.0,808.0" stroke="#636EFA"/>
<path d="M 160.0,167.1 A 8.4,8.4 0 0 0 168.5,175.5" stroke="#636EFA"/>
<path d="M 160.0,229.4 A 8.5,8.5 0 0 1 151.6,237.9 L 134.7,237.9 A 8.5,8.5 0 0 0 126.2,246.3" stroke="#636EFA"/>
<path d="M 160.0,291.9 A 8.5,8.5 0 0 1 151.6,300.3 A 8.5,8.5 0 0 0 143.1,308.8" stroke="#636EFA"/>
<path d="M 160.0,323.1 A 8.5,8.5 0 0 1 151.6,331.5 L 117.8,331.5 L 100.9,331.5 A 8.5,8.5 0 0 0 92.4,339.9" stroke="#636EFA"/>
<path d="M 58.6,260.6 A 8.4,8.4 0 0 1 50.2,269.1" stroke="#636EFA"/>
<path d="M 58.6,323.1 A 8.5,8.5 0 0 0 67.1,331.5 L 84.0,331.5 A 8.5,8.5 0 0 1 92.4,339.9" stroke="#636EFA"/>
<path d="M 58.6,354.2 A 8.4,8.4 0 0 1 50.2,362.7" stroke="#636EFA"/>
<path d="M 41.7,371.1 A 8.5,8.5 0 0 1 50.2,362.7 L 117.8,362.7 L 134.7,362.7 A 8.5,8.5 0 0 0 143.1,354.2" stroke="#636EFA"/>
<path d="M 58.6,572.6 A 8.5,8.5 0 0 1 50.2,581.1" stroke="#636EFA"/>
<path d="M 58.6,635.0 A 8.5,8.5 0 0 0 67.1,643.5 L 84.0,643.5 A 8.5,8.5 0 0 1 92.4,652.0" stroke="#636EFA"/>
<path d="M 58.6,791.0 A 8.5,8.5 0 0 0 67.1,799.5" stroke="#636EFA"/>
<path d="M 160.0,808.0 A 8.5,8.5 0 0 0 151.6,799.5 L 134.7,799.5 A 8.5,8.5 0 0 1 126.2,791.0" stroke="#636EFA"/>
<path d="M 126.2,260.6 A 8.5,8.5 0 0 1 117.8,269.1" stroke="#636EFA"/>
<path d="M 126.2,291.9 A 8.4,8.4 0 0 0 134.7,300.3" stroke="#636EFA"/>
<path d="M 126.2,323.1 A 8.5,8.5 0 0 1 117.8,331.5" stroke="#636EFA"/>
<path d="M 126.2,354.2 A 8.5,8.5 0 0 1 117.8,362.7" stroke="#636EFA"/>
<path d="M 41.7,572.6 A 8.5,8.5 0 0 1 33.3,581.1" stroke="#636EFA"/>
<path d="M 41.7,791.0 A 8.5,8.5 0 0 0 50.2,799.5" stroke="#636EFA"/>
</g>
<g><title>given</title>
<polygon points="87.1,30.5 97.8,30.5 92.4,39.7" fill="#FFFFFF" stroke="#636EFA" stroke-width="2.0" stroke-linejoin="round"/>
<line x1="223.2" y1="26.5" x2="399.5" y2="26.5" stroke="#111111" stroke-width="1"/>
<text x="223.2" y="39.8" font-family="Arial" font-size="13" fill="#111111" font-weight="600" text-anchor="start">given</text></g>
<g><title>e5::opera_ms.env</title>
<circle cx="210.7" cy="66.3" r="4.7" fill="#FFFFFF" stroke="#636EFA" stroke-width="1.3"/>
<text x="233.6" y="60.8" font-family="Arial" font-size="6.5" fill="#7A7A7A" text-anchor="start">e5</text>
<text x="233.6" y="71.0" font-family="Arial" font-size="13" fill="#7A7A7A" font-weight="normal" text-anchor="start">opera_ms.env</text></g>
<g><title>e5::masurca.env</title>
<circle cx="24.8" cy="97.5" r="4.7" fill="#FFFFFF" stroke="#636EFA" stroke-width="1.3"/>
<text x="233.6" y="92.0" font-family="Arial" font-size="6.5" fill="#7A7A7A" text-anchor="start">e5</text>
<text x="233.6" y="102.2" font-family="Arial" font-size="13" fill="#7A7A7A" font-weight="normal" text-anchor="start">masurca.env</text></g>
<g><title>e5::quast.env</title>
<circle cx="193.8" cy="128.7" r="4.7" fill="#FFFFFF" stroke="#636EFA" stroke-width="1.3"/>
<text x="233.6" y="123.2" font-family="Arial" font-size="6.5" fill="#7A7A7A" text-anchor="start">e5</text>
<text x="233.6" y="133.4" font-family="Arial" font-size="13" fill="#7A7A7A" font-weight="normal" text-anchor="start">quast.env</text></g>
<g><title>viromics::contig_study</title>
<circle cx="160.0" cy="159.9" r="4.7" fill="#FFFFFF" stroke="#636EFA" stroke-width="1.3"/>
<text x="233.6" y="154.4" font-family="Arial" font-size="6.5" fill="#7A7A7A" text-anchor="start">viromics</text>
<text x="233.6" y="164.6" font-family="Arial" font-size="13" fill="#7A7A7A" font-weight="normal" text-anchor="start">contig_study</text></g>
<g><title>e5::source_genomes</title>
<circle cx="176.9" cy="191.1" r="4.7" fill="#FFFFFF" stroke="#636EFA" stroke-width="1.3"/>
<text x="233.6" y="185.6" font-family="Arial" font-size="6.5" fill="#7A7A7A" text-anchor="start">e5</text>
<text x="233.6" y="195.8" font-family="Arial" font-size="13" fill="#7A7A7A" font-weight="normal" text-anchor="start">source_genomes</text></g>
<g><title>sequences::read_metadata</title>
<circle cx="58.6" cy="222.3" r="4.7" fill="#FFFFFF" stroke="#636EFA" stroke-width="1.3"/>
<text x="233.6" y="216.8" font-family="Arial" font-size="6.5" fill="#7A7A7A" text-anchor="start">sequences</text>
<text x="233.6" y="227.0" font-family="Arial" font-size="13" fill="#7A7A7A" font-weight="normal" text-anchor="start">read_metadata</text></g>
<g><title>sequences::read_pair</title>
<circle cx="126.2" cy="253.5" r="4.7" fill="#FFFFFF" stroke="#636EFA" stroke-width="1.3"/>
<text x="233.6" y="248.0" font-family="Arial" font-size="6.5" fill="#7A7A7A" text-anchor="start">sequences</text>
<text x="233.6" y="258.2" font-family="Arial" font-size="13" fill="#7A7A7A" font-weight="normal" text-anchor="start">read_pair</text></g>
<g><title>e5::long_read_platform</title>
<circle cx="41.7" cy="284.7" r="4.7" fill="#FFFFFF" stroke="#636EFA" stroke-width="1.3"/>
<text x="233.6" y="279.2" font-family="Arial" font-size="6.5" fill="#7A7A7A" text-anchor="start">e5</text>
<text x="233.6" y="289.4" font-family="Arial" font-size="13" fill="#7A7A7A" font-weight="normal" text-anchor="start">long_read_platform</text></g>
<g><title>e3::nanopore_reads</title>
<circle cx="143.1" cy="315.9" r="4.7" fill="#FFFFFF" stroke="#636EFA" stroke-width="1.3"/>
<text x="233.6" y="310.4" font-family="Arial" font-size="6.5" fill="#7A7A7A" text-anchor="start">e3</text>
<text x="233.6" y="320.6" font-family="Arial" font-size="13" fill="#7A7A7A" font-weight="normal" text-anchor="start">nanopore_reads</text></g>
<g><title>sequences::short_reads_pe</title>
<circle cx="92.4" cy="347.1" r="4.7" fill="#FFFFFF" stroke="#EF553B" stroke-width="1.3"/>
<text x="233.6" y="341.6" font-family="Arial" font-size="6.5" fill="#7A7A7A" text-anchor="start">sequences</text>
<text x="233.6" y="351.8" font-family="Arial" font-size="13" fill="#7A7A7A" font-weight="normal" text-anchor="start">short_reads_pe</text></g>
<g><title>flye</title>
<polygon points="36.4,373.7 47.1,373.7 41.7,382.9" fill="#FFFFFF" stroke="#636EFA" stroke-width="2.0" stroke-linejoin="round"/>
<line x1="223.2" y1="369.7" x2="399.5" y2="369.7" stroke="#111111" stroke-width="1"/>
<text x="223.2" y="383.0" font-family="Arial" font-size="13" fill="#111111" font-weight="600" text-anchor="start">flye</text></g>
<g><title>e5::flye_assembly</title>
<circle cx="41.7" cy="409.5" r="4.7" fill="#FFFFFF" stroke="#636EFA" stroke-width="1.3"/>
<text x="233.6" y="404.0" font-family="Arial" font-size="6.5" fill="#7A7A7A" text-anchor="start">e5</text>
<text x="233.6" y="414.2" font-family="Arial" font-size="13" fill="#7A7A7A" font-weight="normal" text-anchor="start">flye_assembly</text></g>
<g><title>seqkit_reads</title>
<polygon points="104.0,436.1 114.7,436.1 109.3,445.3" fill="#FFFFFF" stroke="#EF553B" stroke-width="2.0" stroke-linejoin="round"/>
<line x1="223.2" y1="432.1" x2="399.5" y2="432.1" stroke="#111111" stroke-width="1"/>
<text x="223.2" y="445.4" font-family="Arial" font-size="13" fill="#111111" font-weight="600" text-anchor="start">seqkit_reads</text></g>
<g><title>sequences::read_qc_stats</title>
<circle cx="109.3" cy="471.9" r="4.7" fill="#FFFFFF" stroke="#EF553B" stroke-width="1.3"/>
<text x="233.6" y="466.4" font-family="Arial" font-size="6.5" fill="#7A7A7A" text-anchor="start">sequences</text>
<text x="233.6" y="476.6" font-family="Arial" font-size="13" fill="#7A7A7A" font-weight="normal" text-anchor="start">read_qc_stats</text></g>
<g><title>bbduk</title>
<polygon points="104.0,498.5 114.7,498.5 109.3,507.7" fill="#FFFFFF" stroke="#00CC96" stroke-width="2.0" stroke-linejoin="round"/>
<line x1="223.2" y1="494.5" x2="399.5" y2="494.5" stroke="#111111" stroke-width="1"/>
<text x="223.2" y="507.8" font-family="Arial" font-size="13" fill="#111111" font-weight="600" text-anchor="start">bbduk</text></g>
<g><title>sequences::discarded_short_reads</title>
<circle cx="92.4" cy="534.3" r="4.7" fill="#FFFFFF" stroke="#00CC96" stroke-width="1.3"/>
<text x="233.6" y="528.8" font-family="Arial" font-size="6.5" fill="#7A7A7A" text-anchor="start">sequences</text>
<text x="233.6" y="539.0" font-family="Arial" font-size="13" fill="#7A7A7A" font-weight="normal" text-anchor="start">discarded_short_reads</text></g>
<g><title>sequences::clean_short_reads</title>
<circle cx="109.3" cy="565.5" r="4.7" fill="#FFFFFF" stroke="#00CC96" stroke-width="1.3"/>
<text x="233.6" y="560.0" font-family="Arial" font-size="6.5" fill="#7A7A7A" text-anchor="start">sequences</text>
<text x="233.6" y="570.2" font-family="Arial" font-size="13" fill="#7A7A7A" font-weight="normal" text-anchor="start">clean_short_reads</text></g>
<g><title>polca</title>
<polygon points="19.5,592.1 30.2,592.1 24.8,601.3" fill="#FFFFFF" stroke="#636EFA" stroke-width="2.0" stroke-linejoin="round"/>
<line x1="223.2" y1="588.1" x2="399.5" y2="588.1" stroke="#111111" stroke-width="1"/>
<text x="223.2" y="601.4" font-family="Arial" font-size="13" fill="#111111" font-weight="600" text-anchor="start">polca</text></g>
<g><title>e5::polca_assembly</title>
<circle cx="24.8" cy="627.9" r="4.7" fill="#FFFFFF" stroke="#636EFA" stroke-width="1.3"/>
<text x="233.6" y="622.4" font-family="Arial" font-size="6.5" fill="#7A7A7A" text-anchor="start">e5</text>
<text x="233.6" y="632.6" font-family="Arial" font-size="13" fill="#7A7A7A" font-weight="normal" text-anchor="start">polca_assembly</text></g>
<g><title>megahit</title>
<polygon points="87.1,654.5 97.8,654.5 92.4,663.7" fill="#FFFFFF" stroke="#EF553B" stroke-width="2.0" stroke-linejoin="round"/>
<line x1="223.2" y1="650.5" x2="399.5" y2="650.5" stroke="#111111" stroke-width="1"/>
<text x="223.2" y="663.8" font-family="Arial" font-size="13" fill="#111111" font-weight="600" text-anchor="start">megahit</text></g>
<g><title>sequences::megahit_assembly_graph</title>
<circle cx="75.5" cy="690.3" r="4.7" fill="#FFFFFF" stroke="#EF553B" stroke-width="1.3"/>
<text x="233.6" y="684.8" font-family="Arial" font-size="6.5" fill="#7A7A7A" text-anchor="start">sequences</text>
<text x="233.6" y="695.0" font-family="Arial" font-size="13" fill="#7A7A7A" font-weight="normal" text-anchor="start">megahit_assembly_graph</text></g>
<g><title>sequences::megahit_assembly</title>
<circle cx="92.4" cy="721.5" r="4.7" fill="#FFFFFF" stroke="#EF553B" stroke-width="1.3"/>
<text x="233.6" y="716.0" font-family="Arial" font-size="6.5" fill="#7A7A7A" text-anchor="start">sequences</text>
<text x="233.6" y="726.2" font-family="Arial" font-size="13" fill="#7A7A7A" font-weight="normal" text-anchor="start">megahit_assembly</text></g>
<g><title>opera_ms</title>
<polygon points="120.9,748.1 131.6,748.1 126.2,757.3" fill="#FFFFFF" stroke="#636EFA" stroke-width="2.0" stroke-linejoin="round"/>
<line x1="223.2" y1="744.1" x2="399.5" y2="744.1" stroke="#111111" stroke-width="1"/>
<text x="223.2" y="757.4" font-family="Arial" font-size="13" fill="#111111" font-weight="600" text-anchor="start">opera_ms</text></g>
<g><title>e5::opera_ms_assembly</title>
<circle cx="126.2" cy="783.9" r="4.7" fill="#FFFFFF" stroke="#636EFA" stroke-width="1.3"/>
<text x="233.6" y="778.4" font-family="Arial" font-size="6.5" fill="#7A7A7A" text-anchor="start">e5</text>
<text x="233.6" y="788.6" font-family="Arial" font-size="13" fill="#7A7A7A" font-weight="normal" text-anchor="start">opera_ms_assembly</text></g>
<g><title>metaquast</title>
<polygon points="154.7,810.5 165.4,810.5 160.0,819.7" fill="#FFFFFF" stroke="#636EFA" stroke-width="2.0" stroke-linejoin="round"/>
<line x1="223.2" y1="806.5" x2="399.5" y2="806.5" stroke="#111111" stroke-width="1"/>
<text x="223.2" y="819.8" font-family="Arial" font-size="13" fill="#111111" font-weight="600" text-anchor="start">metaquast</text></g>
<g><title>e5::metaquast_report</title>
<circle cx="160.0" cy="846.3" r="5.3" fill="#636EFA" stroke="#2B2B2B" stroke-width="1.3"/>
<text x="233.6" y="840.8" font-family="Arial" font-size="6.5" fill="#7A7A7A" text-anchor="start">e5</text>
<text x="233.6" y="851.0" font-family="Arial" font-size="13" fill="#7A7A7A" font-weight="normal" text-anchor="start">metaquast_report</text></g>
<g><title>quast</title>
<polygon points="87.1,872.9 97.8,872.9 92.4,882.1" fill="#FFFFFF" stroke="#636EFA" stroke-width="2.0" stroke-linejoin="round"/>
<line x1="223.2" y1="868.9" x2="399.5" y2="868.9" stroke="#111111" stroke-width="1"/>
<text x="223.2" y="882.2" font-family="Arial" font-size="13" fill="#111111" font-weight="600" text-anchor="start">quast</text></g>
<g><title>e5::quast_report</title>
<circle cx="92.4" cy="908.7" r="5.3" fill="#636EFA" stroke="#2B2B2B" stroke-width="1.3"/>
<text x="233.6" y="903.2" font-family="Arial" font-size="6.5" fill="#7A7A7A" text-anchor="start">e5</text>
<text x="233.6" y="913.4" font-family="Arial" font-size="13" fill="#7A7A7A" font-weight="normal" text-anchor="start">quast_report</text></g>
</svg>
