<?xml version="1.0" encoding="UTF-8" standalone="no"?>
<svg xmlns="http://www.w3.org/2000/svg" xmlns:xlink="http://www.w3.org/1999/xlink" width="388" height="1131" viewBox="0 0 388 1131">
<g fill="none" stroke="#666666" stroke-width="1.4" stroke-linejoin="round" stroke-linecap="round">
<path d="M 24.8,39.7 L 24.8,42.2 A 8.5,8.5 0 0 0 33.3,50.7 L 50.2,50.7 A 8.5,8.5 0 0 1 58.6,59.2 L 58.6,61.6" stroke="#636EFA"/>
<path d="M 24.8,39.7 L 24.8,73.5 A 8.5,8.5 0 0 0 33.3,81.9 L 84.0,81.9 A 8.5,8.5 0 0 1 92.4,90.4 L 92.4,92.8" stroke="#636EFA"/>
<path d="M 24.8,39.7 L 24.8,104.6 A 8.5,8.5 0 0 0 33.3,113.1 L 117.8,113.1 A 8.5,8.5 0 0 1 126.2,121.5 L 126.2,124.0" stroke="#636EFA"/>
<path d="M 24.8,39.7 L 24.8,135.9 A 8.5,8.5 0 0 0 33.3,144.3 L 67.1,144.3 A 8.5,8.5 0 0 1 75.5,152.8 L 75.5,155.2" stroke="#636EFA"/>
<path d="M 24.8,39.7 L 24.8,167.1 A 8.5,8.5 0 0 0 33.3,175.5 L 134.7,175.5 A 8.5,8.5 0 0 1 143.1,183.9 L 143.1,186.4" stroke="#636EFA"/>
<path d="M 24.8,39.7 L 24.8,198.2 A 8.5,8.5 0 0 0 33.3,206.7 A 8.5,8.5 0 0 1 41.7,215.1 L 41.7,217.6" stroke="#636EFA"/>
<path d="M 24.8,39.7 L 24.8,229.4 A 8.5,8.5 0 0 0 33.3,237.9 L 151.6,237.9 A 8.5,8.5 0 0 1 160.0,246.3 L 160.0,248.8" stroke="#636EFA"/>
<path d="M 24.8,39.7 L 24.8,291.8 A 8.5,8.5 0 0 0 33.3,300.3 L 151.6,300.3 A 8.5,8.5 0 0 1 160.0,308.7 L 160.0,311.2" stroke="#636EFA"/>
<path d="M 24.8,39.7 L 24.8,323.1 A 8.5,8.5 0 0 0 33.3,331.5 L 100.9,331.5 A 8.5,8.5 0 0 1 109.3,339.9 L 109.3,342.4" stroke="#636EFA"/>
<path d="M 24.8,39.7 L 24.8,666.2 A 8.5,8.5 0 0 0 33.3,674.7 L 50.2,674.7 A 8.5,8.5 0 0 1 58.6,683.2 L 58.6,685.6" stroke="#636EFA"/>
<path d="M 24.8,39.7 L 24.8,791.0 A 8.5,8.5 0 0 0 33.3,799.5 L 100.9,799.5 A 8.5,8.5 0 0 1 109.3,808.0 L 109.3,810.4" stroke="#636EFA"/>
<path d="M 24.8,39.7 L 24.8,904.0" stroke="#636EFA"/>
<path d="M 58.6,71.0 L 58.6,603.8 A 8.5,8.5 0 0 0 67.1,612.3 L 100.9,612.3 A 8.5,8.5 0 0 1 109.3,620.8 L 109.3,623.3" stroke="#636EFA"/>
<path d="M 92.4,102.2 L 92.4,404.9" stroke="#636EFA"/>
<path d="M 126.2,133.4 L 126.2,416.7 A 8.4,8.4 0 0 1 117.8,425.1 A 8.4,8.4 0 0 0 109.3,433.6 L 109.3,436.1" stroke="#636EFA"/>
<path d="M 75.5,164.6 L 75.5,560.9" stroke="#636EFA"/>
<path d="M 143.1,195.8 L 143.1,280.1" stroke="#636EFA"/>
<path d="M 41.7,227.0 L 41.7,229.4 A 8.5,8.5 0 0 0 50.2,237.9 L 151.6,237.9 A 8.5,8.5 0 0 1 160.0,246.3 L 160.0,248.8" stroke="#636EFA"/>
<path d="M 41.7,227.0 L 41.7,260.7 A 8.5,8.5 0 0 0 50.2,269.1 L 134.7,269.1 A 8.5,8.5 0 0 1 143.1,277.6 L 143.1,280.1" stroke="#636EFA"/>
<path d="M 41.7,227.0 L 41.7,291.8 A 8.5,8.5 0 0 0 50.2,300.3 L 151.6,300.3 A 8.5,8.5 0 0 1 160.0,308.7 L 160.0,311.2" stroke="#636EFA"/>
<path d="M 41.7,227.0 L 41.7,323.1 A 8.5,8.5 0 0 0 50.2,331.5 L 100.9,331.5 A 8.5,8.5 0 0 1 109.3,339.9 L 109.3,342.4" stroke="#636EFA"/>
<path d="M 41.7,227.0 L 41.7,385.4 A 8.5,8.5 0 0 0 50.2,393.9 L 84.0,393.9 A 8.5,8.5 0 0 1 92.4,402.3 L 92.4,404.9" stroke="#636EFA"/>
<path d="M 41.7,227.0 L 41.7,416.7 A 8.5,8.5 0 0 0 50.2,425.1 L 100.9,425.1 A 8.5,8.5 0 0 1 109.3,433.6 L 109.3,436.1" stroke="#636EFA"/>
<path d="M 41.7,227.0 L 41.7,541.4 A 8.5,8.5 0 0 0 50.2,549.9 L 67.1,549.9 A 8.5,8.5 0 0 1 75.5,558.4 L 75.5,560.9" stroke="#636EFA"/>
<path d="M 41.7,227.0 L 41.7,603.8 A 8.5,8.5 0 0 0 50.2,612.3 L 100.9,612.3 A 8.5,8.5 0 0 1 109.3,620.8 L 109.3,623.3" stroke="#636EFA"/>
<path d="M 41.7,227.0 L 41.7,697.4 A 8.5,8.5 0 0 0 50.2,705.9 L 100.9,705.9 A 8.5,8.5 0 0 1 109.3,714.4 L 109.3,716.9" stroke="#636EFA"/>
<path d="M 41.7,227.0 L 41.7,853.4 A 8.5,8.5 0 0 0 50.2,861.9 L 100.9,861.9 A 8.5,8.5 0 0 1 109.3,870.4 L 109.3,872.9" stroke="#636EFA"/>
<path d="M 41.7,227.0 L 41.7,947.0 A 8.5,8.5 0 0 0 50.2,955.5 L 84.0,955.5 A 8.5,8.5 0 0 1 92.4,964.0 L 92.4,966.5" stroke="#636EFA"/>
<path d="M 41.7,227.0 L 41.7,1028.9" stroke="#636EFA"/>
<path d="M 160.0,258.2 L 160.0,260.7 A 8.5,8.5 0 0 1 151.6,269.1 L 151.6,269.1 A 8.5,8.5 0 0 0 143.1,277.6 L 143.1,280.1" stroke="#636EFA"/>
<path d="M 143.1,289.3 L 143.1,373.6" stroke="#636EFA"/>
<path d="M 160.0,320.6 L 160.0,416.7 A 8.5,8.5 0 0 1 151.6,425.1 L 117.8,425.1 A 8.5,8.5 0 0 0 109.3,433.6 L 109.3,436.1" stroke="#636EFA"/>
<path d="M 109.3,351.8 L 109.3,436.1" stroke="#636EFA"/>
<path d="M 143.1,383.0 L 143.1,385.4 A 8.5,8.5 0 0 1 134.7,393.9 L 100.9,393.9 A 8.5,8.5 0 0 0 92.4,402.3 L 92.4,404.9" stroke="#636EFA"/>
<path d="M 92.4,414.1 L 92.4,841.6" stroke="#636EFA"/>
<path d="M 109.3,445.3 L 109.3,447.8 A 8.4,8.4 0 0 0 117.8,456.3 A 8.4,8.4 0 0 1 126.2,464.7 L 126.2,467.2" stroke="#EF553B"/>
<path d="M 109.3,445.3 L 109.3,479.1 A 8.4,8.4 0 0 0 117.8,487.5 A 8.4,8.4 0 0 1 126.2,495.9 L 126.2,498.4" stroke="#EF553B"/>
<path d="M 109.3,445.3 L 109.3,529.6" stroke="#EF553B"/>
<path d="M 109.3,539.0 L 109.3,541.4 A 8.5,8.5 0 0 1 100.9,549.9 L 84.0,549.9 A 8.5,8.5 0 0 0 75.5,558.4 L 75.5,560.9" stroke="#EF553B"/>
<path d="M 109.3,539.0 L 109.3,623.3" stroke="#EF553B"/>
<path d="M 75.5,570.1 L 75.5,592.0" stroke="#636EFA"/>
<path d="M 75.5,601.4 L 75.5,603.8 A 8.5,8.5 0 0 0 84.0,612.3 L 100.9,612.3 A 8.5,8.5 0 0 1 109.3,620.8 L 109.3,623.3" stroke="#636EFA"/>
<path d="M 75.5,601.4 L 75.5,697.4 A 8.5,8.5 0 0 0 84.0,705.9 L 100.9,705.9 A 8.5,8.5 0 0 1 109.3,714.4 L 109.3,716.9" stroke="#636EFA"/>
<path d="M 109.3,632.5 L 109.3,654.4" stroke="#636EFA"/>
<path d="M 109.3,663.8 L 109.3,716.9" stroke="#636EFA"/>
<path d="M 58.6,695.0 L 58.6,697.4 A 8.5,8.5 0 0 0 67.1,705.9 L 100.9,705.9 A 8.5,8.5 0 0 1 109.3,714.4 L 109.3,716.9" stroke="#636EFA"/>
<path d="M 58.6,695.0 L 58.6,1009.4 A 8.4,8.4 0 0 1 50.2,1017.9 A 8.4,8.4 0 0 0 41.7,1026.3 L 41.7,1028.9" stroke="#636EFA"/>
<path d="M 109.3,726.1 L 109.3,728.6 A 8.4,8.4 0 0 0 117.8,737.1 A 8.4,8.4 0 0 1 126.2,745.5 L 126.2,747.4" stroke="#EF553B"/>
<path d="M 109.3,726.1 L 109.3,779.2" stroke="#EF553B"/>
<path d="M 109.3,819.8 L 109.3,872.9" stroke="#636EFA"/>
<path d="M 92.4,851.0 L 92.4,853.4 A 8.5,8.5 0 0 0 100.9,861.9 A 8.5,8.5 0 0 1 109.3,870.4 L 109.3,872.9" stroke="#636EFA"/>
<path d="M 92.4,851.0 L 92.4,966.5" stroke="#636EFA"/>
<path d="M 109.3,882.1 L 109.3,935.2" stroke="#636EFA"/>
<path d="M 24.8,913.4 L 24.8,947.0 A 8.5,8.5 0 0 0 33.3,955.5 L 84.0,955.5 A 8.5,8.5 0 0 1 92.4,964.0 L 92.4,966.5" stroke="#636EFA"/>
<path d="M 109.3,944.6 L 109.3,947.0 A 8.5,8.5 0 0 1 100.9,955.5 A 8.5,8.5 0 0 0 92.4,964.0 L 92.4,966.5" stroke="#636EFA"/>
<path d="M 109.3,944.6 L 109.3,1009.4 A 8.5,8.5 0 0 1 100.9,1017.9 L 50.2,1017.9 A 8.5,8.5 0 0 0 41.7,1026.3 L 41.7,1028.9" stroke="#636EFA"/>
<path d="M 92.4,975.7 L 92.4,997.6" stroke="#636EFA"/>
<path d="M 92.4,1007.0 L 92.4,1009.4 A 8.5,8.5 0 0 1 84.0,1017.9 L 50.2,1017.9 A 8.5,8.5 0 0 0 41.7,1026.3 L 41.7,1028.9" stroke="#636EFA"/>
<path d="M 41.7,1038.1 L 41.7,1040.6 A 8.4,8.4 0 0 0 50.2,1049.1 A 8.4,8.4 0 0 1 58.6,1057.5 L 58.6,1059.4" stroke="#EF553B"/>
<path d="M 41.7,1038.1 L 41.7,1091.2" stroke="#EF553B"/>
</g>
<g><title>given</title>
<polygon points="19.5,30.5 30.2,30.5 24.8,39.7" fill="#FFFFFF" stroke="#636EFA" stroke-width="2.0" stroke-linejoin="round"/>
<text x="172.5" y="39.8" font-family="Arial" font-size="13" fill="#111111" font-weight="600" text-anchor="start">given</text></g>
<g><title>e2::bowtie2.env</title>
<circle cx="58.6" cy="66.3" r="4.7" fill="#FFFFFF" stroke="#636EFA" stroke-width="1.3"/>
<text x="172.5" y="60.8" font-family="Arial" font-size="6.5" fill="#A8A8A8" text-anchor="start">e2</text>
<text x="172.5" y="71.0" font-family="Arial" font-size="13" fill="#7A7A7A" font-weight="normal" text-anchor="start">bowtie2.env</text></g>
<g><title>e2::chopper.env</title>
<circle cx="92.4" cy="97.5" r="4.7" fill="#FFFFFF" stroke="#636EFA" stroke-width="1.3"/>
<text x="172.5" y="92.0" font-family="Arial" font-size="6.5" fill="#A8A8A8" text-anchor="start">e2</text>
<text x="172.5" y="102.2" font-family="Arial" font-size="13" fill="#7A7A7A" font-weight="normal" text-anchor="start">chopper.env</text></g>
<g><title>e2::fastp.env</title>
<circle cx="126.2" cy="128.7" r="4.7" fill="#FFFFFF" stroke="#636EFA" stroke-width="1.3"/>
<text x="172.5" y="123.2" font-family="Arial" font-size="6.5" fill="#A8A8A8" text-anchor="start">e2</text>
<text x="172.5" y="133.4" font-family="Arial" font-size="13" fill="#7A7A7A" font-weight="normal" text-anchor="start">fastp.env</text></g>
<g><title>e2::megahit.env</title>
<circle cx="75.5" cy="159.9" r="4.7" fill="#FFFFFF" stroke="#636EFA" stroke-width="1.3"/>
<text x="172.5" y="154.4" font-family="Arial" font-size="6.5" fill="#A8A8A8" text-anchor="start">e2</text>
<text x="172.5" y="164.6" font-family="Arial" font-size="13" fill="#7A7A7A" font-weight="normal" text-anchor="start">megahit.env</text></g>
<g><title>e2::porechop_abi.env</title>
<circle cx="143.1" cy="191.1" r="4.7" fill="#FFFFFF" stroke="#636EFA" stroke-width="1.3"/>
<text x="172.5" y="185.6" font-family="Arial" font-size="6.5" fill="#A8A8A8" text-anchor="start">e2</text>
<text x="172.5" y="195.8" font-family="Arial" font-size="13" fill="#7A7A7A" font-weight="normal" text-anchor="start">porechop_abi.env</text></g>
<g><title>e2::read_metadata</title>
<circle cx="41.7" cy="222.3" r="4.7" fill="#FFFFFF" stroke="#636EFA" stroke-width="1.3"/>
<text x="172.5" y="216.8" font-family="Arial" font-size="6.5" fill="#A8A8A8" text-anchor="start">e2</text>
<text x="172.5" y="227.0" font-family="Arial" font-size="13" fill="#7A7A7A" font-weight="normal" text-anchor="start">read_metadata</text></g>
<g><title>e2::long_reads</title>
<circle cx="160.0" cy="253.5" r="4.7" fill="#FFFFFF" stroke="#636EFA" stroke-width="1.3"/>
<text x="172.5" y="248.0" font-family="Arial" font-size="6.5" fill="#A8A8A8" text-anchor="start">e2</text>
<text x="172.5" y="258.2" font-family="Arial" font-size="13" fill="#7A7A7A" font-weight="normal" text-anchor="start">long_reads</text></g>
<g><title>1 porechop_abi</title>
<polygon points="137.8,280.1 148.5,280.1 143.1,289.3" fill="#FFFFFF" stroke="#636EFA" stroke-width="2.0" stroke-linejoin="round"/>
<text x="172.5" y="289.4" font-family="Arial" font-size="13" fill="#111111" font-weight="600" text-anchor="start">porechop_abi</text></g>
<g><title>e2::short_reads_1</title>
<circle cx="160.0" cy="315.9" r="4.7" fill="#FFFFFF" stroke="#636EFA" stroke-width="1.3"/>
<text x="172.5" y="310.4" font-family="Arial" font-size="6.5" fill="#A8A8A8" text-anchor="start">e2</text>
<text x="172.5" y="320.6" font-family="Arial" font-size="13" fill="#7A7A7A" font-weight="normal" text-anchor="start">short_reads_1</text></g>
<g><title>e2::short_reads_2</title>
<circle cx="109.3" cy="347.1" r="4.7" fill="#FFFFFF" stroke="#636EFA" stroke-width="1.3"/>
<text x="172.5" y="341.6" font-family="Arial" font-size="6.5" fill="#A8A8A8" text-anchor="start">e2</text>
<text x="172.5" y="351.8" font-family="Arial" font-size="13" fill="#7A7A7A" font-weight="normal" text-anchor="start">short_reads_2</text></g>
<g><title>e2::adapter_trimmed_long_reads</title>
<circle cx="143.1" cy="378.3" r="4.7" fill="#FFFFFF" stroke="#636EFA" stroke-width="1.3"/>
<text x="172.5" y="372.8" font-family="Arial" font-size="6.5" fill="#A8A8A8" text-anchor="start">e2</text>
<text x="172.5" y="383.0" font-family="Arial" font-size="13" fill="#7A7A7A" font-weight="normal" text-anchor="start">adapter_trimmed_long_reads</text></g>
<g><title>4 chopper</title>
<polygon points="87.1,404.9 97.8,404.9 92.4,414.1" fill="#FFFFFF" stroke="#636EFA" stroke-width="2.0" stroke-linejoin="round"/>
<text x="172.5" y="414.2" font-family="Arial" font-size="13" fill="#111111" font-weight="600" text-anchor="start">chopper</text></g>
<g><title>2 fastp</title>
<polygon points="104.0,436.1 114.7,436.1 109.3,445.3" fill="#FFFFFF" stroke="#EF553B" stroke-width="2.0" stroke-linejoin="round"/>
<text x="172.5" y="445.4" font-family="Arial" font-size="13" fill="#111111" font-weight="600" text-anchor="start">fastp</text></g>
<g><title>e2::fastp_json</title>
<circle cx="126.2" cy="471.9" r="4.7" fill="#FFFFFF" stroke="#EF553B" stroke-width="1.3"/>
<text x="172.5" y="466.4" font-family="Arial" font-size="6.5" fill="#A8A8A8" text-anchor="start">e2</text>
<text x="172.5" y="476.6" font-family="Arial" font-size="13" fill="#7A7A7A" font-weight="normal" text-anchor="start">fastp_json</text></g>
<g><title>e2::fastp_html</title>
<circle cx="126.2" cy="503.1" r="4.7" fill="#FFFFFF" stroke="#EF553B" stroke-width="1.3"/>
<text x="172.5" y="497.6" font-family="Arial" font-size="6.5" fill="#A8A8A8" text-anchor="start">e2</text>
<text x="172.5" y="507.8" font-family="Arial" font-size="13" fill="#7A7A7A" font-weight="normal" text-anchor="start">fastp_html</text></g>
<g><title>e2::trimmed_short_reads</title>
<circle cx="109.3" cy="534.3" r="4.7" fill="#FFFFFF" stroke="#EF553B" stroke-width="1.3"/>
<text x="172.5" y="528.8" font-family="Arial" font-size="6.5" fill="#A8A8A8" text-anchor="start">e2</text>
<text x="172.5" y="539.0" font-family="Arial" font-size="13" fill="#7A7A7A" font-weight="normal" text-anchor="start">trimmed_short_reads</text></g>
<g><title>3 megahit</title>
<polygon points="70.2,560.9 80.9,560.9 75.5,570.1" fill="#FFFFFF" stroke="#636EFA" stroke-width="2.0" stroke-linejoin="round"/>
<text x="172.5" y="570.2" font-family="Arial" font-size="13" fill="#111111" font-weight="600" text-anchor="start">megahit</text></g>
<g><title>e2::megahit_assembly</title>
<circle cx="75.5" cy="596.7" r="4.7" fill="#FFFFFF" stroke="#636EFA" stroke-width="1.3"/>
<text x="172.5" y="591.2" font-family="Arial" font-size="6.5" fill="#A8A8A8" text-anchor="start">e2</text>
<text x="172.5" y="601.4" font-family="Arial" font-size="13" fill="#7A7A7A" font-weight="normal" text-anchor="start">megahit_assembly</text></g>
<g><title>6 bowtie2_binning_bam</title>
<polygon points="104.0,623.3 114.7,623.3 109.3,632.5" fill="#FFFFFF" stroke="#636EFA" stroke-width="2.0" stroke-linejoin="round"/>
<text x="172.5" y="632.6" font-family="Arial" font-size="13" fill="#111111" font-weight="600" text-anchor="start">bowtie2_binning_bam</text></g>
<g><title>e2::binning_bam</title>
<circle cx="109.3" cy="659.1" r="4.7" fill="#FFFFFF" stroke="#636EFA" stroke-width="1.3"/>
<text x="172.5" y="653.6" font-family="Arial" font-size="6.5" fill="#A8A8A8" text-anchor="start">e2</text>
<text x="172.5" y="663.8" font-family="Arial" font-size="13" fill="#7A7A7A" font-weight="normal" text-anchor="start">binning_bam</text></g>
<g><title>e2::comebin.env</title>
<circle cx="58.6" cy="690.3" r="4.7" fill="#FFFFFF" stroke="#636EFA" stroke-width="1.3"/>
<text x="172.5" y="684.8" font-family="Arial" font-size="6.5" fill="#A8A8A8" text-anchor="start">e2</text>
<text x="172.5" y="695.0" font-family="Arial" font-size="13" fill="#7A7A7A" font-weight="normal" text-anchor="start">comebin.env</text></g>
<g><title>7 comebin</title>
<polygon points="104.0,716.9 114.7,716.9 109.3,726.1" fill="#FFFFFF" stroke="#EF553B" stroke-width="2.0" stroke-linejoin="round"/>
<text x="172.5" y="726.2" font-family="Arial" font-size="13" fill="#111111" font-weight="600" text-anchor="start">comebin</text></g>
<g><title>e2::comebin_bin</title>
<circle cx="126.2" cy="752.7" r="5.3" fill="#EF553B" stroke="#2B2B2B" stroke-width="3.0"/>
<text x="172.5" y="747.2" font-family="Arial" font-size="6.5" fill="#8A8A8A" text-anchor="start">e2</text>
<text x="172.5" y="757.4" font-family="Arial" font-size="13" fill="#111111" font-weight="normal" text-anchor="start">comebin_bin</text></g>
<g><title>e2::comebin_contig_to_bin</title>
<circle cx="109.3" cy="783.9" r="4.7" fill="#FFFFFF" stroke="#EF553B" stroke-width="1.3"/>
<text x="172.5" y="778.4" font-family="Arial" font-size="6.5" fill="#A8A8A8" text-anchor="start">e2</text>
<text x="172.5" y="788.6" font-family="Arial" font-size="13" fill="#7A7A7A" font-weight="normal" text-anchor="start">comebin_contig_to_bin</text></g>
<g><title>e2::flye.env</title>
<circle cx="109.3" cy="815.1" r="4.7" fill="#FFFFFF" stroke="#636EFA" stroke-width="1.3"/>
<text x="172.5" y="809.6" font-family="Arial" font-size="6.5" fill="#A8A8A8" text-anchor="start">e2</text>
<text x="172.5" y="819.8" font-family="Arial" font-size="13" fill="#7A7A7A" font-weight="normal" text-anchor="start">flye.env</text></g>
<g><title>e2::filtered_long_reads</title>
<circle cx="92.4" cy="846.3" r="4.7" fill="#FFFFFF" stroke="#636EFA" stroke-width="1.3"/>
<text x="172.5" y="840.8" font-family="Arial" font-size="6.5" fill="#A8A8A8" text-anchor="start">e2</text>
<text x="172.5" y="851.0" font-family="Arial" font-size="13" fill="#7A7A7A" font-weight="normal" text-anchor="start">filtered_long_reads</text></g>
<g><title>5 flye</title>
<polygon points="104.0,872.9 114.7,872.9 109.3,882.1" fill="#FFFFFF" stroke="#636EFA" stroke-width="2.0" stroke-linejoin="round"/>
<text x="172.5" y="882.2" font-family="Arial" font-size="13" fill="#111111" font-weight="600" text-anchor="start">flye</text></g>
<g><title>e2::minimap2.env</title>
<circle cx="24.8" cy="908.7" r="4.7" fill="#FFFFFF" stroke="#636EFA" stroke-width="1.3"/>
<text x="172.5" y="903.2" font-family="Arial" font-size="6.5" fill="#A8A8A8" text-anchor="start">e2</text>
<text x="172.5" y="913.4" font-family="Arial" font-size="13" fill="#7A7A7A" font-weight="normal" text-anchor="start">minimap2.env</text></g>
<g><title>e2::flye_assembly</title>
<circle cx="109.3" cy="939.9" r="4.7" fill="#FFFFFF" stroke="#636EFA" stroke-width="1.3"/>
<text x="172.5" y="934.4" font-family="Arial" font-size="6.5" fill="#A8A8A8" text-anchor="start">e2</text>
<text x="172.5" y="944.6" font-family="Arial" font-size="13" fill="#7A7A7A" font-weight="normal" text-anchor="start">flye_assembly</text></g>
<g><title>8 minimap2_binning_bam</title>
<polygon points="87.1,966.5 97.8,966.5 92.4,975.7" fill="#FFFFFF" stroke="#636EFA" stroke-width="2.0" stroke-linejoin="round"/>
<text x="172.5" y="975.8" font-family="Arial" font-size="13" fill="#111111" font-weight="600" text-anchor="start">minimap2_binning_bam</text></g>
<g><title>e2::binning_bam</title>
<circle cx="92.4" cy="1002.3" r="4.7" fill="#FFFFFF" stroke="#636EFA" stroke-width="1.3"/>
<text x="172.5" y="996.8" font-family="Arial" font-size="6.5" fill="#A8A8A8" text-anchor="start">e2</text>
<text x="172.5" y="1007.0" font-family="Arial" font-size="13" fill="#7A7A7A" font-weight="normal" text-anchor="start">binning_bam</text></g>
<g><title>9 comebin</title>
<polygon points="36.4,1028.9 47.1,1028.9 41.7,1038.1" fill="#FFFFFF" stroke="#EF553B" stroke-width="2.0" stroke-linejoin="round"/>
<text x="172.5" y="1038.2" font-family="Arial" font-size="13" fill="#111111" font-weight="600" text-anchor="start">comebin</text></g>
<g><title>e2::comebin_bin</title>
<circle cx="58.6" cy="1064.7" r="5.3" fill="#EF553B" stroke="#2B2B2B" stroke-width="3.0"/>
<text x="172.5" y="1059.2" font-family="Arial" font-size="6.5" fill="#8A8A8A" text-anchor="start">e2</text>
<text x="172.5" y="1069.4" font-family="Arial" font-size="13" fill="#111111" font-weight="normal" text-anchor="start">comebin_bin</text></g>
<g><title>e2::comebin_contig_to_bin</title>
<circle cx="41.7" cy="1095.9" r="4.7" fill="#FFFFFF" stroke="#EF553B" stroke-width="1.3"/>
<text x="172.5" y="1090.4" font-family="Arial" font-size="6.5" fill="#A8A8A8" text-anchor="start">e2</text>
<text x="172.5" y="1100.6" font-family="Arial" font-size="13" fill="#7A7A7A" font-weight="normal" text-anchor="start">comebin_contig_to_bin</text></g>
</svg>
