<?xml version="1.0" encoding="UTF-8" standalone="no"?>
<svg xmlns="http://www.w3.org/2000/svg" xmlns:xlink="http://www.w3.org/1999/xlink" width="439" height="1131" viewBox="0 0 439 1131">
<g fill="none" stroke="#8D97A8" stroke-width="1.4" stroke-linejoin="round" stroke-linecap="round">
<path d="M 143.1,39.7 L 143.1,42.2 A 8.5,8.5 0 0 0 151.6,50.7 L 202.3,50.7 A 8.5,8.5 0 0 1 210.7,59.2 L 210.7,61.6" stroke="#636EFA"/>
<path d="M 143.1,39.7 L 143.1,73.5 A 8.5,8.5 0 0 1 134.7,81.9 L 33.3,81.9 A 8.5,8.5 0 0 0 24.8,90.4 L 24.8,92.8" stroke="#636EFA"/>
<path d="M 143.1,39.7 L 143.1,104.6 A 8.5,8.5 0 0 0 151.6,113.1 L 168.5,113.1 A 8.5,8.5 0 0 1 176.9,121.5 L 176.9,124.0" stroke="#636EFA"/>
<path d="M 143.1,39.7 L 143.1,135.9 A 8.5,8.5 0 0 1 134.7,144.3 L 100.9,144.3 A 8.5,8.5 0 0 0 92.4,152.8 L 92.4,155.2" stroke="#636EFA"/>
<path d="M 143.1,39.7 L 143.1,167.1 A 8.5,8.5 0 0 0 151.6,175.5 L 185.4,175.5 A 8.5,8.5 0 0 1 193.8,183.9 L 193.8,186.4" stroke="#636EFA"/>
<path d="M 143.1,39.7 L 143.1,198.2 A 8.5,8.5 0 0 0 151.6,206.7 L 151.6,206.7 A 8.5,8.5 0 0 1 160.0,215.1 L 160.0,217.6" stroke="#636EFA"/>
<path d="M 143.1,39.7 L 143.1,229.4 A 8.4,8.4 0 0 1 134.7,237.9 A 8.4,8.4 0 0 0 126.2,246.3 L 126.2,248.8" stroke="#636EFA"/>
<path d="M 143.1,39.7 L 143.1,260.7 A 8.5,8.5 0 0 1 134.7,269.1 L 50.2,269.1 A 8.5,8.5 0 0 0 41.7,277.6 L 41.7,280.0" stroke="#636EFA"/>
<path d="M 143.1,39.7 L 143.1,291.8 A 8.5,8.5 0 0 1 134.7,300.3 L 84.0,300.3 A 8.5,8.5 0 0 0 75.5,308.7 L 75.5,311.2" stroke="#636EFA"/>
<path d="M 143.1,39.7 L 143.1,323.1 A 8.5,8.5 0 0 1 134.7,331.5 L 117.8,331.5 A 8.5,8.5 0 0 0 109.3,339.9 L 109.3,342.4" stroke="#636EFA"/>
<path d="M 143.1,39.7 L 143.1,354.2 A 8.5,8.5 0 0 1 134.7,362.7 L 67.1,362.7 A 8.5,8.5 0 0 0 58.6,371.1 L 58.6,373.6" stroke="#636EFA"/>
<path d="M 143.1,39.7 L 143.1,404.8" stroke="#636EFA"/>
<path d="M 210.7,71.0 L 210.7,947.0 A 8.5,8.5 0 0 1 202.3,955.5 L 67.1,955.5 A 8.5,8.5 0 0 0 58.6,964.0 L 58.6,966.5" stroke="#636EFA"/>
<path d="M 24.8,102.2 L 24.8,479.1 A 8.5,8.5 0 0 0 33.3,487.5 L 117.8,487.5 A 8.5,8.5 0 0 1 126.2,495.9 L 126.2,498.5" stroke="#636EFA"/>
<path d="M 176.9,133.4 L 176.9,759.8 A 8.4,8.4 0 0 1 168.5,768.3 A 8.4,8.4 0 0 0 160.0,776.8 L 160.0,779.3" stroke="#636EFA"/>
<path d="M 92.4,164.6 L 92.4,541.4 A 8.5,8.5 0 0 0 100.9,549.9 A 8.5,8.5 0 0 1 109.3,558.4 L 109.3,560.9" stroke="#636EFA"/>
<path d="M 193.8,195.8 L 193.8,884.6 A 8.5,8.5 0 0 1 185.4,893.1 L 100.9,893.1 A 8.5,8.5 0 0 0 92.4,901.5 L 92.4,904.1" stroke="#636EFA"/>
<path d="M 160.0,227.0 L 160.0,603.8 A 8.5,8.5 0 0 1 151.6,612.3 L 100.9,612.3 A 8.5,8.5 0 0 0 92.4,620.8 L 92.4,623.3" stroke="#636EFA"/>
<path d="M 126.2,258.2 L 126.2,416.7 A 8.4,8.4 0 0 1 117.8,425.1 A 8.4,8.4 0 0 0 109.3,433.6 L 109.3,436.1" stroke="#636EFA"/>
<path d="M 41.7,289.4 L 41.7,666.2 A 8.5,8.5 0 0 0 50.2,674.7 L 100.9,674.7 A 8.5,8.5 0 0 1 109.3,683.2 L 109.3,685.7" stroke="#636EFA"/>
<path d="M 41.7,289.4 L 41.7,1009.4 A 8.5,8.5 0 0 0 50.2,1017.9 L 84.0,1017.9 A 8.5,8.5 0 0 1 92.4,1026.3 L 92.4,1028.9" stroke="#636EFA"/>
<path d="M 75.5,320.6 L 75.5,323.1 A 8.5,8.5 0 0 0 84.0,331.5 L 100.9,331.5 A 8.5,8.5 0 0 1 109.3,339.9 L 109.3,342.4" stroke="#636EFA"/>
<path d="M 75.5,320.6 L 75.5,354.2 A 8.4,8.4 0 0 1 67.1,362.7 A 8.4,8.4 0 0 0 58.6,371.1 L 58.6,373.6" stroke="#636EFA"/>
<path d="M 75.5,320.6 L 75.5,385.4 A 8.5,8.5 0 0 0 84.0,393.9 L 134.7,393.9 A 8.5,8.5 0 0 1 143.1,402.3 L 143.1,404.8" stroke="#636EFA"/>
<path d="M 75.5,320.6 L 75.5,416.7 A 8.5,8.5 0 0 0 84.0,425.1 L 100.9,425.1 A 8.5,8.5 0 0 1 109.3,433.6 L 109.3,436.1" stroke="#636EFA"/>
<path d="M 75.5,320.6 L 75.5,479.1 A 8.5,8.5 0 0 0 84.0,487.5 L 117.8,487.5 A 8.5,8.5 0 0 1 126.2,495.9 L 126.2,498.5" stroke="#636EFA"/>
<path d="M 75.5,320.6 L 75.5,541.4 A 8.5,8.5 0 0 0 84.0,549.9 L 100.9,549.9 A 8.5,8.5 0 0 1 109.3,558.4 L 109.3,560.9" stroke="#636EFA"/>
<path d="M 75.5,320.6 L 75.5,603.8 A 8.5,8.5 0 0 0 84.0,612.3 A 8.5,8.5 0 0 1 92.4,620.8 L 92.4,623.3" stroke="#636EFA"/>
<path d="M 75.5,320.6 L 75.5,666.2 A 8.5,8.5 0 0 0 84.0,674.7 L 100.9,674.7 A 8.5,8.5 0 0 1 109.3,683.2 L 109.3,685.7" stroke="#636EFA"/>
<path d="M 75.5,320.6 L 75.5,759.8 A 8.5,8.5 0 0 0 84.0,768.3 L 151.6,768.3 A 8.5,8.5 0 0 1 160.0,776.8 L 160.0,779.3" stroke="#636EFA"/>
<path d="M 75.5,320.6 L 75.5,884.6 A 8.5,8.5 0 0 0 84.0,893.1 A 8.5,8.5 0 0 1 92.4,901.5 L 92.4,904.1" stroke="#636EFA"/>
<path d="M 75.5,320.6 L 75.5,947.0 A 8.4,8.4 0 0 1 67.1,955.5 A 8.4,8.4 0 0 0 58.6,964.0 L 58.6,966.5" stroke="#636EFA"/>
<path d="M 75.5,320.6 L 75.5,1009.4 A 8.5,8.5 0 0 0 84.0,1017.9 A 8.5,8.5 0 0 1 92.4,1026.3 L 92.4,1028.9" stroke="#636EFA"/>
<path d="M 109.3,351.8 L 109.3,436.1" stroke="#636EFA"/>
<path d="M 58.6,383.0 L 58.6,759.8 A 8.5,8.5 0 0 0 67.1,768.3 L 151.6,768.3 A 8.5,8.5 0 0 1 160.0,776.8 L 160.0,779.3" stroke="#636EFA"/>
<path d="M 143.1,414.2 L 143.1,759.8 A 8.5,8.5 0 0 0 151.6,768.3 L 151.6,768.3 A 8.5,8.5 0 0 1 160.0,776.8 L 160.0,779.3" stroke="#636EFA"/>
<path d="M 109.3,445.3 L 109.3,467.2" stroke="#636EFA"/>
<path d="M 109.3,476.6 L 109.3,479.1 A 8.4,8.4 0 0 0 117.8,487.5 A 8.4,8.4 0 0 1 126.2,495.9 L 126.2,498.5" stroke="#636EFA"/>
<path d="M 126.2,507.7 L 126.2,529.6" stroke="#636EFA"/>
<path d="M 126.2,539.0 L 126.2,541.4 A 8.4,8.4 0 0 1 117.8,549.9 A 8.4,8.4 0 0 0 109.3,558.4 L 109.3,560.9" stroke="#636EFA"/>
<path d="M 126.2,539.0 L 126.2,603.8 A 8.5,8.5 0 0 1 117.8,612.3 L 100.9,612.3 A 8.5,8.5 0 0 0 92.4,620.8 L 92.4,623.3" stroke="#636EFA"/>
<path d="M 109.3,570.1 L 109.3,592.0" stroke="#636EFA"/>
<path d="M 109.3,601.4 L 109.3,603.8 A 8.5,8.5 0 0 1 100.9,612.3 A 8.5,8.5 0 0 0 92.4,620.8 L 92.4,623.3" stroke="#636EFA"/>
<path d="M 109.3,601.4 L 109.3,685.7" stroke="#636EFA"/>
<path d="M 92.4,632.5 L 92.4,654.4" stroke="#636EFA"/>
<path d="M 92.4,663.8 L 92.4,666.2 A 8.5,8.5 0 0 0 100.9,674.7 A 8.5,8.5 0 0 1 109.3,683.2 L 109.3,685.7" stroke="#636EFA"/>
<path d="M 109.3,694.9 L 109.3,697.4 A 8.5,8.5 0 0 1 100.9,705.9 A 8.5,8.5 0 0 0 92.4,714.4 L 92.4,716.2" stroke="#EF553B"/>
<path d="M 109.3,694.9 L 109.3,748.0" stroke="#EF553B"/>
<path d="M 160.0,788.5 L 160.0,791.0 A 8.5,8.5 0 0 1 151.6,799.5 L 151.6,799.5 A 8.5,8.5 0 0 0 143.1,808.0 L 143.1,810.4" stroke="#EF553B"/>
<path d="M 160.0,788.5 L 160.0,822.2 A 8.5,8.5 0 0 1 151.6,830.7 L 151.6,830.7 A 8.5,8.5 0 0 0 143.1,839.2 L 143.1,841.6" stroke="#EF553B"/>
<path d="M 160.0,788.5 L 160.0,872.8" stroke="#EF553B"/>
<path d="M 160.0,882.2 L 160.0,884.6 A 8.5,8.5 0 0 1 151.6,893.1 L 100.9,893.1 A 8.5,8.5 0 0 0 92.4,901.5 L 92.4,904.1" stroke="#EF553B"/>
<path d="M 160.0,882.2 L 160.0,947.0 A 8.5,8.5 0 0 1 151.6,955.5 L 67.1,955.5 A 8.5,8.5 0 0 0 58.6,964.0 L 58.6,966.5" stroke="#EF553B"/>
<path d="M 92.4,913.3 L 92.4,935.2" stroke="#636EFA"/>
<path d="M 92.4,944.6 L 92.4,947.0 A 8.5,8.5 0 0 1 84.0,955.5 L 67.1,955.5 A 8.5,8.5 0 0 0 58.6,964.0 L 58.6,966.5" stroke="#636EFA"/>
<path d="M 92.4,944.6 L 92.4,1028.9" stroke="#636EFA"/>
<path d="M 58.6,975.7 L 58.6,997.6" stroke="#636EFA"/>
<path d="M 58.6,1007.0 L 58.6,1009.4 A 8.5,8.5 0 0 0 67.1,1017.9 L 84.0,1017.9 A 8.5,8.5 0 0 1 92.4,1026.3 L 92.4,1028.9" stroke="#636EFA"/>
<path d="M 92.4,1038.1 L 92.4,1040.6 A 8.5,8.5 0 0 1 84.0,1049.1 A 8.5,8.5 0 0 0 75.5,1057.5 L 75.5,1059.4" stroke="#EF553B"/>
<path d="M 92.4,1038.1 L 92.4,1091.2" stroke="#EF553B"/>
</g>
<g><title>given</title>
<polygon points="137.8,30.5 148.5,30.5 143.1,39.7" fill="#1B1E24" stroke="#636EFA" stroke-width="2.0" stroke-linejoin="round"/>
<text x="223.2" y="39.8" font-family="Arial" font-size="13" fill="#DFE3EA" font-weight="600" text-anchor="start">given</text></g>
<g><title>e2::bowtie2.env</title>
<circle cx="210.7" cy="66.3" r="4.7" fill="#1B1E24" stroke="#636EFA" stroke-width="1.3"/>
<text x="223.2" y="60.8" font-family="Arial" font-size="6.5" fill="#5F6877" text-anchor="start">e2</text>
<text x="223.2" y="71.0" font-family="Arial" font-size="13" fill="#8D97A8" font-weight="normal" text-anchor="start">bowtie2.env</text></g>
<g><title>e2::chopper.env</title>
<circle cx="24.8" cy="97.5" r="4.7" fill="#1B1E24" stroke="#636EFA" stroke-width="1.3"/>
<text x="223.2" y="92.0" font-family="Arial" font-size="6.5" fill="#5F6877" text-anchor="start">e2</text>
<text x="223.2" y="102.2" font-family="Arial" font-size="13" fill="#8D97A8" font-weight="normal" text-anchor="start">chopper.env</text></g>
<g><title>e2::fastp.env</title>
<circle cx="176.9" cy="128.7" r="4.7" fill="#1B1E24" stroke="#636EFA" stroke-width="1.3"/>
<text x="223.2" y="123.2" font-family="Arial" font-size="6.5" fill="#5F6877" text-anchor="start">e2</text>
<text x="223.2" y="133.4" font-family="Arial" font-size="13" fill="#8D97A8" font-weight="normal" text-anchor="start">fastp.env</text></g>
<g><title>e2::flye.env</title>
<circle cx="92.4" cy="159.9" r="4.7" fill="#1B1E24" stroke="#636EFA" stroke-width="1.3"/>
<text x="223.2" y="154.4" font-family="Arial" font-size="6.5" fill="#5F6877" text-anchor="start">e2</text>
<text x="223.2" y="164.6" font-family="Arial" font-size="13" fill="#8D97A8" font-weight="normal" text-anchor="start">flye.env</text></g>
<g><title>e2::megahit.env</title>
<circle cx="193.8" cy="191.1" r="4.7" fill="#1B1E24" stroke="#636EFA" stroke-width="1.3"/>
<text x="223.2" y="185.6" font-family="Arial" font-size="6.5" fill="#5F6877" text-anchor="start">e2</text>
<text x="223.2" y="195.8" font-family="Arial" font-size="13" fill="#8D97A8" font-weight="normal" text-anchor="start">megahit.env</text></g>
<g><title>e2::minimap2.env</title>
<circle cx="160.0" cy="222.3" r="4.7" fill="#1B1E24" stroke="#636EFA" stroke-width="1.3"/>
<text x="223.2" y="216.8" font-family="Arial" font-size="6.5" fill="#5F6877" text-anchor="start">e2</text>
<text x="223.2" y="227.0" font-family="Arial" font-size="13" fill="#8D97A8" font-weight="normal" text-anchor="start">minimap2.env</text></g>
<g><title>e2::porechop_abi.env</title>
<circle cx="126.2" cy="253.5" r="4.7" fill="#1B1E24" stroke="#636EFA" stroke-width="1.3"/>
<text x="223.2" y="248.0" font-family="Arial" font-size="6.5" fill="#5F6877" text-anchor="start">e2</text>
<text x="223.2" y="258.2" font-family="Arial" font-size="13" fill="#8D97A8" font-weight="normal" text-anchor="start">porechop_abi.env</text></g>
<g><title>e2::comebin.env</title>
<circle cx="41.7" cy="284.7" r="4.7" fill="#1B1E24" stroke="#636EFA" stroke-width="1.3"/>
<text x="223.2" y="279.2" font-family="Arial" font-size="6.5" fill="#5F6877" text-anchor="start">e2</text>
<text x="223.2" y="289.4" font-family="Arial" font-size="13" fill="#8D97A8" font-weight="normal" text-anchor="start">comebin.env</text></g>
<g><title>e2::read_metadata</title>
<circle cx="75.5" cy="315.9" r="4.7" fill="#1B1E24" stroke="#636EFA" stroke-width="1.3"/>
<text x="223.2" y="310.4" font-family="Arial" font-size="6.5" fill="#5F6877" text-anchor="start">e2</text>
<text x="223.2" y="320.6" font-family="Arial" font-size="13" fill="#8D97A8" font-weight="normal" text-anchor="start">read_metadata</text></g>
<g><title>e2::long_reads</title>
<circle cx="109.3" cy="347.1" r="4.7" fill="#1B1E24" stroke="#636EFA" stroke-width="1.3"/>
<text x="223.2" y="341.6" font-family="Arial" font-size="6.5" fill="#5F6877" text-anchor="start">e2</text>
<text x="223.2" y="351.8" font-family="Arial" font-size="13" fill="#8D97A8" font-weight="normal" text-anchor="start">long_reads</text></g>
<g><title>e2::short_reads_1</title>
<circle cx="58.6" cy="378.3" r="4.7" fill="#1B1E24" stroke="#636EFA" stroke-width="1.3"/>
<text x="223.2" y="372.8" font-family="Arial" font-size="6.5" fill="#5F6877" text-anchor="start">e2</text>
<text x="223.2" y="383.0" font-family="Arial" font-size="13" fill="#8D97A8" font-weight="normal" text-anchor="start">short_reads_1</text></g>
<g><title>e2::short_reads_2</title>
<circle cx="143.1" cy="409.5" r="4.7" fill="#1B1E24" stroke="#636EFA" stroke-width="1.3"/>
<text x="223.2" y="404.0" font-family="Arial" font-size="6.5" fill="#5F6877" text-anchor="start">e2</text>
<text x="223.2" y="414.2" font-family="Arial" font-size="13" fill="#8D97A8" font-weight="normal" text-anchor="start">short_reads_2</text></g>
<g><title>1 porechop_abi</title>
<polygon points="104.0,436.1 114.7,436.1 109.3,445.3" fill="#1B1E24" stroke="#636EFA" stroke-width="2.0" stroke-linejoin="round"/>
<text x="223.2" y="445.4" font-family="Arial" font-size="13" fill="#DFE3EA" font-weight="600" text-anchor="start">porechop_abi</text></g>
<g><title>e2::adapter_trimmed_long_reads</title>
<circle cx="109.3" cy="471.9" r="4.7" fill="#1B1E24" stroke="#636EFA" stroke-width="1.3"/>
<text x="223.2" y="466.4" font-family="Arial" font-size="6.5" fill="#5F6877" text-anchor="start">e2</text>
<text x="223.2" y="476.6" font-family="Arial" font-size="13" fill="#8D97A8" font-weight="normal" text-anchor="start">adapter_trimmed_long_reads</text></g>
<g><title>4 chopper</title>
<polygon points="120.9,498.5 131.6,498.5 126.2,507.7" fill="#1B1E24" stroke="#636EFA" stroke-width="2.0" stroke-linejoin="round"/>
<text x="223.2" y="507.8" font-family="Arial" font-size="13" fill="#DFE3EA" font-weight="600" text-anchor="start">chopper</text></g>
<g><title>e2::filtered_long_reads</title>
<circle cx="126.2" cy="534.3" r="4.7" fill="#1B1E24" stroke="#636EFA" stroke-width="1.3"/>
<text x="223.2" y="528.8" font-family="Arial" font-size="6.5" fill="#5F6877" text-anchor="start">e2</text>
<text x="223.2" y="539.0" font-family="Arial" font-size="13" fill="#8D97A8" font-weight="normal" text-anchor="start">filtered_long_reads</text></g>
<g><title>5 flye</title>
<polygon points="104.0,560.9 114.7,560.9 109.3,570.1" fill="#1B1E24" stroke="#636EFA" stroke-width="2.0" stroke-linejoin="round"/>
<text x="223.2" y="570.2" font-family="Arial" font-size="13" fill="#DFE3EA" font-weight="600" text-anchor="start">flye</text></g>
<g><title>e2::flye_assembly</title>
<circle cx="109.3" cy="596.7" r="4.7" fill="#1B1E24" stroke="#636EFA" stroke-width="1.3"/>
<text x="223.2" y="591.2" font-family="Arial" font-size="6.5" fill="#5F6877" text-anchor="start">e2</text>
<text x="223.2" y="601.4" font-family="Arial" font-size="13" fill="#8D97A8" font-weight="normal" text-anchor="start">flye_assembly</text></g>
<g><title>8 minimap2_binning_bam</title>
<polygon points="87.1,623.3 97.8,623.3 92.4,632.5" fill="#1B1E24" stroke="#636EFA" stroke-width="2.0" stroke-linejoin="round"/>
<text x="223.2" y="632.6" font-family="Arial" font-size="13" fill="#DFE3EA" font-weight="600" text-anchor="start">minimap2_binning_bam</text></g>
<g><title>e2::binning_bam</title>
<circle cx="92.4" cy="659.1" r="4.7" fill="#1B1E24" stroke="#636EFA" stroke-width="1.3"/>
<text x="223.2" y="653.6" font-family="Arial" font-size="6.5" fill="#5F6877" text-anchor="start">e2</text>
<text x="223.2" y="663.8" font-family="Arial" font-size="13" fill="#8D97A8" font-weight="normal" text-anchor="start">binning_bam</text></g>
<g><title>9 comebin</title>
<polygon points="104.0,685.7 114.7,685.7 109.3,694.9" fill="#1B1E24" stroke="#EF553B" stroke-width="2.0" stroke-linejoin="round"/>
<text x="223.2" y="695.0" font-family="Arial" font-size="13" fill="#DFE3EA" font-weight="600" text-anchor="start">comebin</text></g>
<g><title>e2::comebin_bin</title>
<circle cx="92.4" cy="721.5" r="5.3" fill="#EF553B" stroke="#DFE3EA" stroke-width="1.3"/>
<text x="223.2" y="716.0" font-family="Arial" font-size="6.5" fill="#6B7484" text-anchor="start">e2</text>
<text x="223.2" y="726.2" font-family="Arial" font-size="13" fill="#DFE3EA" font-weight="normal" text-anchor="start">comebin_bin</text></g>
<g><title>e2::comebin_contig_to_bin</title>
<circle cx="109.3" cy="752.7" r="4.7" fill="#1B1E24" stroke="#EF553B" stroke-width="1.3"/>
<text x="223.2" y="747.2" font-family="Arial" font-size="6.5" fill="#5F6877" text-anchor="start">e2</text>
<text x="223.2" y="757.4" font-family="Arial" font-size="13" fill="#8D97A8" font-weight="normal" text-anchor="start">comebin_contig_to_bin</text></g>
<g><title>2 fastp</title>
<polygon points="154.7,779.3 165.4,779.3 160.0,788.5" fill="#1B1E24" stroke="#EF553B" stroke-width="2.0" stroke-linejoin="round"/>
<text x="223.2" y="788.6" font-family="Arial" font-size="13" fill="#DFE3EA" font-weight="600" text-anchor="start">fastp</text></g>
<g><title>e2::fastp_json</title>
<circle cx="143.1" cy="815.1" r="4.7" fill="#1B1E24" stroke="#EF553B" stroke-width="1.3"/>
<text x="223.2" y="809.6" font-family="Arial" font-size="6.5" fill="#5F6877" text-anchor="start">e2</text>
<text x="223.2" y="819.8" font-family="Arial" font-size="13" fill="#8D97A8" font-weight="normal" text-anchor="start">fastp_json</text></g>
<g><title>e2::fastp_html</title>
<circle cx="143.1" cy="846.3" r="4.7" fill="#1B1E24" stroke="#EF553B" stroke-width="1.3"/>
<text x="223.2" y="840.8" font-family="Arial" font-size="6.5" fill="#5F6877" text-anchor="start">e2</text>
<text x="223.2" y="851.0" font-family="Arial" font-size="13" fill="#8D97A8" font-weight="normal" text-anchor="start">fastp_html</text></g>
<g><title>e2::trimmed_short_reads</title>
<circle cx="160.0" cy="877.5" r="4.7" fill="#1B1E24" stroke="#EF553B" stroke-width="1.3"/>
<text x="223.2" y="872.0" font-family="Arial" font-size="6.5" fill="#5F6877" text-anchor="start">e2</text>
<text x="223.2" y="882.2" font-family="Arial" font-size="13" fill="#8D97A8" font-weight="normal" text-anchor="start">trimmed_short_reads</text></g>
<g><title>3 megahit</title>
<polygon points="87.1,904.1 97.8,904.1 92.4,913.3" fill="#1B1E24" stroke="#636EFA" stroke-width="2.0" stroke-linejoin="round"/>
<text x="223.2" y="913.4" font-family="Arial" font-size="13" fill="#DFE3EA" font-weight="600" text-anchor="start">megahit</text></g>
<g><title>e2::megahit_assembly</title>
<circle cx="92.4" cy="939.9" r="4.7" fill="#1B1E24" stroke="#636EFA" stroke-width="1.3"/>
<text x="223.2" y="934.4" font-family="Arial" font-size="6.5" fill="#5F6877" text-anchor="start">e2</text>
<text x="223.2" y="944.6" font-family="Arial" font-size="13" fill="#8D97A8" font-weight="normal" text-anchor="start">megahit_assembly</text></g>
<g><title>6 bowtie2_binning_bam</title>
<polygon points="53.3,966.5 64.0,966.5 58.6,975.7" fill="#1B1E24" stroke="#636EFA" stroke-width="2.0" stroke-linejoin="round"/>
<text x="223.2" y="975.8" font-family="Arial" font-size="13" fill="#DFE3EA" font-weight="600" text-anchor="start">bowtie2_binning_bam</text></g>
<g><title>e2::binning_bam</title>
<circle cx="58.6" cy="1002.3" r="4.7" fill="#1B1E24" stroke="#636EFA" stroke-width="1.3"/>
<text x="223.2" y="996.8" font-family="Arial" font-size="6.5" fill="#5F6877" text-anchor="start">e2</text>
<text x="223.2" y="1007.0" font-family="Arial" font-size="13" fill="#8D97A8" font-weight="normal" text-anchor="start">binning_bam</text></g>
<g><title>7 comebin</title>
<polygon points="87.1,1028.9 97.8,1028.9 92.4,1038.1" fill="#1B1E24" stroke="#EF553B" stroke-width="2.0" stroke-linejoin="round"/>
<text x="223.2" y="1038.2" font-family="Arial" font-size="13" fill="#DFE3EA" font-weight="600" text-anchor="start">comebin</text></g>
<g><title>e2::comebin_bin</title>
<circle cx="75.5" cy="1064.7" r="5.3" fill="#EF553B" stroke="#DFE3EA" stroke-width="1.3"/>
<text x="223.2" y="1059.2" font-family="Arial" font-size="6.5" fill="#6B7484" text-anchor="start">e2</text>
<text x="223.2" y="1069.4" font-family="Arial" font-size="13" fill="#DFE3EA" font-weight="normal" text-anchor="start">comebin_bin</text></g>
<g><title>e2::comebin_contig_to_bin</title>
<circle cx="92.4" cy="1095.9" r="4.7" fill="#1B1E24" stroke="#EF553B" stroke-width="1.3"/>
<text x="223.2" y="1090.4" font-family="Arial" font-size="6.5" fill="#5F6877" text-anchor="start">e2</text>
<text x="223.2" y="1100.6" font-family="Arial" font-size="13" fill="#8D97A8" font-weight="normal" text-anchor="start">comebin_contig_to_bin</text></g>
</svg>
