<?xml version="1.0" encoding="UTF-8" standalone="no"?>
<svg xmlns="http://www.w3.org/2000/svg" xmlns:xlink="http://www.w3.org/1999/xlink" width="358" height="1256" viewBox="0 0 358 1256">
<g fill="none" stroke="#666666" stroke-width="1.4" stroke-linejoin="round" stroke-linecap="round">
<path d="M 75.5,39.7 L 75.5,42.2 A 8.5,8.5 0 0 0 84.0,50.7 L 151.6,50.7 A 8.5,8.5 0 0 1 160.0,59.2 L 160.0,61.6" stroke="#636EFA"/>
<path d="M 75.5,39.7 L 75.5,73.5 A 8.5,8.5 0 0 0 84.0,81.9 L 134.7,81.9 A 8.5,8.5 0 0 1 143.1,90.4 L 143.1,92.8" stroke="#636EFA"/>
<path d="M 75.5,39.7 L 75.5,104.6 A 8.5,8.5 0 0 0 84.0,113.1 L 100.9,113.1 A 8.5,8.5 0 0 1 109.3,121.5 L 109.3,124.0" stroke="#636EFA"/>
<path d="M 75.5,39.7 L 75.5,135.9 A 8.5,8.5 0 0 0 84.0,144.3 L 117.8,144.3 A 8.5,8.5 0 0 1 126.2,152.8 L 126.2,155.2" stroke="#636EFA"/>
<path d="M 75.5,39.7 L 75.5,167.1 A 8.5,8.5 0 0 0 84.0,175.5 A 8.5,8.5 0 0 1 92.4,183.9 L 92.4,186.4" stroke="#636EFA"/>
<path d="M 75.5,39.7 L 75.5,198.2 A 8.4,8.4 0 0 1 67.1,206.7 A 8.4,8.4 0 0 0 58.6,215.1 L 58.6,217.6" stroke="#636EFA"/>
<path d="M 160.0,71.0 L 160.0,1184.9" stroke="#636EFA"/>
<path d="M 143.1,102.2 L 143.1,603.8 A 8.4,8.4 0 0 1 134.7,612.3 A 8.4,8.4 0 0 0 126.2,620.8 L 126.2,623.3" stroke="#636EFA"/>
<path d="M 109.3,133.4 L 109.3,135.9 A 8.4,8.4 0 0 0 117.8,144.3 A 8.4,8.4 0 0 1 126.2,152.8 L 126.2,155.2" stroke="#636EFA"/>
<path d="M 109.3,133.4 L 109.3,167.1 A 8.5,8.5 0 0 1 100.9,175.5 A 8.5,8.5 0 0 0 92.4,183.9 L 92.4,186.4" stroke="#636EFA"/>
<path d="M 109.3,133.4 L 109.3,198.2 A 8.5,8.5 0 0 1 100.9,206.7 L 67.1,206.7 A 8.5,8.5 0 0 0 58.6,215.1 L 58.6,217.6" stroke="#636EFA"/>
<path d="M 109.3,133.4 L 109.3,229.4 A 8.5,8.5 0 0 1 100.9,237.9 L 84.0,237.9 A 8.5,8.5 0 0 0 75.5,246.3 L 75.5,248.9" stroke="#636EFA"/>
<path d="M 109.3,133.4 L 109.3,291.8 A 8.5,8.5 0 0 1 100.9,300.3 A 8.5,8.5 0 0 0 92.4,308.7 L 92.4,311.3" stroke="#636EFA"/>
<path d="M 109.3,133.4 L 109.3,416.7 A 8.5,8.5 0 0 1 100.9,425.1 A 8.5,8.5 0 0 0 92.4,433.6 L 92.4,436.1" stroke="#636EFA"/>
<path d="M 109.3,133.4 L 109.3,479.1 A 8.5,8.5 0 0 1 100.9,487.5 L 67.1,487.5 A 8.5,8.5 0 0 0 58.6,495.9 L 58.6,498.5" stroke="#636EFA"/>
<path d="M 109.3,133.4 L 109.3,541.4 A 8.5,8.5 0 0 1 100.9,549.9 L 84.0,549.9 A 8.5,8.5 0 0 0 75.5,558.4 L 75.5,560.9" stroke="#636EFA"/>
<path d="M 109.3,133.4 L 109.3,603.8 A 8.4,8.4 0 0 0 117.8,612.3 A 8.4,8.4 0 0 1 126.2,620.8 L 126.2,623.3" stroke="#636EFA"/>
<path d="M 109.3,133.4 L 109.3,666.2 A 8.5,8.5 0 0 1 100.9,674.7 A 8.5,8.5 0 0 0 92.4,683.2 L 92.4,685.7" stroke="#636EFA"/>
<path d="M 109.3,133.4 L 109.3,759.8 A 8.5,8.5 0 0 1 100.9,768.3 A 8.5,8.5 0 0 0 92.4,776.8 L 92.4,779.3" stroke="#636EFA"/>
<path d="M 109.3,133.4 L 109.3,853.4 A 8.5,8.5 0 0 1 100.9,861.9 L 84.0,861.9 A 8.5,8.5 0 0 0 75.5,870.4 L 75.5,872.9" stroke="#636EFA"/>
<path d="M 109.3,133.4 L 109.3,947.0 A 8.5,8.5 0 0 1 100.9,955.5 L 50.2,955.5 A 8.5,8.5 0 0 0 41.7,964.0 L 41.7,966.5" stroke="#636EFA"/>
<path d="M 109.3,133.4 L 109.3,1071.8 A 8.5,8.5 0 0 1 100.9,1080.3 L 50.2,1080.3 A 8.5,8.5 0 0 0 41.7,1088.8 L 41.7,1091.3" stroke="#636EFA"/>
<path d="M 126.2,164.6 L 126.2,623.3" stroke="#636EFA"/>
<path d="M 92.4,195.8 L 92.4,229.4 A 8.5,8.5 0 0 1 84.0,237.9 A 8.5,8.5 0 0 0 75.5,246.3 L 75.5,248.9" stroke="#636EFA"/>
<path d="M 92.4,195.8 L 92.4,311.3" stroke="#636EFA"/>
<path d="M 58.6,227.0 L 58.6,229.4 A 8.4,8.4 0 0 0 67.1,237.9 A 8.4,8.4 0 0 1 75.5,246.3 L 75.5,248.9" stroke="#636EFA"/>
<path d="M 58.6,227.0 L 58.6,291.8 A 8.5,8.5 0 0 0 67.1,300.3 L 84.0,300.3 A 8.5,8.5 0 0 1 92.4,308.7 L 92.4,311.3" stroke="#636EFA"/>
<path d="M 75.5,258.1 L 75.5,279.4" stroke="#636EFA"/>
<path d="M 92.4,320.5 L 92.4,323.1 A 8.5,8.5 0 0 1 84.0,331.5 A 8.5,8.5 0 0 0 75.5,339.9 L 75.5,341.8" stroke="#EF553B"/>
<path d="M 92.4,320.5 L 92.4,354.2 A 8.5,8.5 0 0 1 84.0,362.7 A 8.5,8.5 0 0 0 75.5,371.1 L 75.5,373.0" stroke="#EF553B"/>
<path d="M 92.4,320.5 L 92.4,385.4 A 8.5,8.5 0 0 1 84.0,393.9 A 8.5,8.5 0 0 0 75.5,402.3 L 75.5,404.8" stroke="#EF553B"/>
<path d="M 75.5,414.2 L 75.5,416.7 A 8.5,8.5 0 0 0 84.0,425.1 A 8.5,8.5 0 0 1 92.4,433.6 L 92.4,436.1" stroke="#EF553B"/>
<path d="M 75.5,414.2 L 75.5,479.1 A 8.4,8.4 0 0 1 67.1,487.5 A 8.4,8.4 0 0 0 58.6,495.9 L 58.6,498.5" stroke="#EF553B"/>
<path d="M 75.5,414.2 L 75.5,560.9" stroke="#EF553B"/>
<path d="M 92.4,445.3 L 92.4,466.6" stroke="#636EFA"/>
<path d="M 58.6,507.7 L 58.6,510.2 A 8.5,8.5 0 0 1 50.2,518.7 L 33.3,518.7 A 8.5,8.5 0 0 0 24.8,527.1 L 24.8,529.0" stroke="#636EFA"/>
<path d="M 24.8,539.6 L 24.8,541.4 A 8.5,8.5 0 0 0 33.3,549.9 L 67.1,549.9 A 8.5,8.5 0 0 1 75.5,558.4 L 75.5,560.9" stroke="#636EFA"/>
<path d="M 24.8,539.6 L 24.8,603.8 A 8.5,8.5 0 0 0 33.3,612.3 L 117.8,612.3 A 8.5,8.5 0 0 1 126.2,620.8 L 126.2,623.3" stroke="#636EFA"/>
<path d="M 24.8,539.6 L 24.8,666.2 A 8.5,8.5 0 0 0 33.3,674.7 L 84.0,674.7 A 8.5,8.5 0 0 1 92.4,683.2 L 92.4,685.7" stroke="#636EFA"/>
<path d="M 24.8,539.6 L 24.8,759.8 A 8.5,8.5 0 0 0 33.3,768.3 L 84.0,768.3 A 8.5,8.5 0 0 1 92.4,776.8 L 92.4,779.3" stroke="#636EFA"/>
<path d="M 24.8,539.6 L 24.8,853.4 A 8.5,8.5 0 0 0 33.3,861.9 L 67.1,861.9 A 8.5,8.5 0 0 1 75.5,870.4 L 75.5,872.9" stroke="#636EFA"/>
<path d="M 24.8,539.6 L 24.8,947.0 A 8.5,8.5 0 0 0 33.3,955.5 A 8.5,8.5 0 0 1 41.7,964.0 L 41.7,966.5" stroke="#636EFA"/>
<path d="M 24.8,539.6 L 24.8,1071.8 A 8.5,8.5 0 0 0 33.3,1080.3 A 8.5,8.5 0 0 1 41.7,1088.8 L 41.7,1091.3" stroke="#636EFA"/>
<path d="M 75.5,570.1 L 75.5,572.6 A 8.4,8.4 0 0 1 67.1,581.1 A 8.4,8.4 0 0 0 58.6,589.5 L 58.6,592.0" stroke="#636EFA"/>
<path d="M 58.6,601.4 L 58.6,603.8 A 8.5,8.5 0 0 0 67.1,612.3 L 117.8,612.3 A 8.5,8.5 0 0 1 126.2,620.8 L 126.2,623.3" stroke="#636EFA"/>
<path d="M 58.6,601.4 L 58.6,666.2 A 8.5,8.5 0 0 0 67.1,674.7 L 84.0,674.7 A 8.5,8.5 0 0 1 92.4,683.2 L 92.4,685.7" stroke="#636EFA"/>
<path d="M 58.6,601.4 L 58.6,759.8 A 8.5,8.5 0 0 0 67.1,768.3 L 84.0,768.3 A 8.5,8.5 0 0 1 92.4,776.8 L 92.4,779.3" stroke="#636EFA"/>
<path d="M 58.6,601.4 L 58.6,853.4 A 8.4,8.4 0 0 0 67.1,861.9 A 8.4,8.4 0 0 1 75.5,870.4 L 75.5,872.9" stroke="#636EFA"/>
<path d="M 126.2,632.5 L 126.2,635.0 A 8.4,8.4 0 0 0 134.7,643.5 A 8.4,8.4 0 0 1 143.1,652.0 L 143.1,654.4" stroke="#636EFA"/>
<path d="M 143.1,663.8 L 143.1,1071.8 A 8.5,8.5 0 0 1 134.7,1080.3 L 50.2,1080.3 A 8.5,8.5 0 0 0 41.7,1088.8 L 41.7,1091.3" stroke="#636EFA"/>
<path d="M 92.4,694.9 L 92.4,697.4 A 8.5,8.5 0 0 1 84.0,705.9 A 8.5,8.5 0 0 0 75.5,714.4 L 75.5,716.2" stroke="#EF553B"/>
<path d="M 92.4,694.9 L 92.4,728.6 A 8.5,8.5 0 0 0 100.9,737.1 L 117.8,737.1 A 8.5,8.5 0 0 1 126.2,745.5 L 126.2,747.4" stroke="#EF553B"/>
<path d="M 126.2,758.0 L 126.2,947.0 A 8.5,8.5 0 0 1 117.8,955.5 L 50.2,955.5 A 8.5,8.5 0 0 0 41.7,964.0 L 41.7,966.5" stroke="#EF553B"/>
<path d="M 126.2,758.0 L 126.2,1071.8 A 8.5,8.5 0 0 1 117.8,1080.3 L 50.2,1080.3 A 8.5,8.5 0 0 0 41.7,1088.8 L 41.7,1091.3" stroke="#EF553B"/>
<path d="M 92.4,788.5 L 92.4,791.0 A 8.5,8.5 0 0 1 84.0,799.5 A 8.5,8.5 0 0 0 75.5,808.0 L 75.5,809.8" stroke="#EF553B"/>
<path d="M 92.4,788.5 L 92.4,841.0" stroke="#EF553B"/>
<path d="M 92.4,851.6 L 92.4,947.0 A 8.5,8.5 0 0 1 84.0,955.5 L 50.2,955.5 A 8.5,8.5 0 0 0 41.7,964.0 L 41.7,966.5" stroke="#EF553B"/>
<path d="M 92.4,851.6 L 92.4,1071.8 A 8.5,8.5 0 0 1 84.0,1080.3 L 50.2,1080.3 A 8.5,8.5 0 0 0 41.7,1088.8 L 41.7,1091.3" stroke="#EF553B"/>
<path d="M 75.5,882.1 L 75.5,884.6 A 8.4,8.4 0 0 1 67.1,893.1 A 8.4,8.4 0 0 0 58.6,901.5 L 58.6,903.4" stroke="#EF553B"/>
<path d="M 75.5,882.1 L 75.5,934.6" stroke="#EF553B"/>
<path d="M 75.5,945.2 L 75.5,947.0 A 8.5,8.5 0 0 1 67.1,955.5 L 50.2,955.5 A 8.5,8.5 0 0 0 41.7,964.0 L 41.7,966.5" stroke="#EF553B"/>
<path d="M 75.5,945.2 L 75.5,1071.8 A 8.5,8.5 0 0 1 67.1,1080.3 L 50.2,1080.3 A 8.5,8.5 0 0 0 41.7,1088.8 L 41.7,1091.3" stroke="#EF553B"/>
<path d="M 41.7,975.7 L 41.7,978.2 A 8.4,8.4 0 0 0 50.2,986.7 A 8.4,8.4 0 0 1 58.6,995.2 L 58.6,997.0" stroke="#00CC96"/>
<path d="M 41.7,975.7 L 41.7,1009.4 A 8.4,8.4 0 0 0 50.2,1017.9 A 8.4,8.4 0 0 1 58.6,1026.3 L 58.6,1028.2" stroke="#00CC96"/>
<path d="M 41.7,975.7 L 41.7,1059.4" stroke="#00CC96"/>
<path d="M 58.6,1038.8 L 58.6,1165.5 A 8.5,8.5 0 0 0 67.1,1173.9 L 151.6,1173.9 A 8.5,8.5 0 0 1 160.0,1182.4 L 160.0,1184.9" stroke="#00CC96"/>
<path d="M 41.7,1070.0 L 41.7,1091.3" stroke="#00CC96"/>
<path d="M 41.7,1100.5 L 41.7,1103.0 A 8.5,8.5 0 0 1 33.3,1111.5 A 8.5,8.5 0 0 0 24.8,1120.0 L 24.8,1121.8" stroke="#AB63FA"/>
<path d="M 41.7,1100.5 L 41.7,1153.0" stroke="#AB63FA"/>
<path d="M 160.0,1194.1 L 160.0,1215.4" stroke="#636EFA"/>
</g>
<g><title>given</title>
<polygon points="70.2,30.5 80.9,30.5 75.5,39.7" fill="#FFFFFF" stroke="#636EFA" stroke-width="2.0" stroke-linejoin="round"/>
<text x="172.5" y="39.8" font-family="Arial" font-size="13" fill="#111111" font-weight="600" text-anchor="start">given</text></g>
<g><title>e2::checkm2_database</title>
<circle cx="160.0" cy="66.3" r="4.7" fill="#FFFFFF" stroke="#636EFA" stroke-width="1.3"/>
<text x="172.5" y="60.8" font-family="Arial" font-size="6.5" fill="#A8A8A8" text-anchor="start">e2</text>
<text x="172.5" y="71.0" font-family="Arial" font-size="13" fill="#7A7A7A" font-weight="normal" text-anchor="start">checkm2_database</text></g>
<g><title>e2::cami_gold_standard.py</title>
<circle cx="143.1" cy="97.5" r="4.7" fill="#FFFFFF" stroke="#636EFA" stroke-width="1.3"/>
<text x="172.5" y="92.0" font-family="Arial" font-size="6.5" fill="#A8A8A8" text-anchor="start">e2</text>
<text x="172.5" y="102.2" font-family="Arial" font-size="13" fill="#7A7A7A" font-weight="normal" text-anchor="start">cami_gold_standard.py</text></g>
<g><title>e2::read_metadata</title>
<circle cx="109.3" cy="128.7" r="4.7" fill="#FFFFFF" stroke="#636EFA" stroke-width="1.3"/>
<text x="172.5" y="123.2" font-family="Arial" font-size="6.5" fill="#A8A8A8" text-anchor="start">e2</text>
<text x="172.5" y="133.4" font-family="Arial" font-size="13" fill="#7A7A7A" font-weight="normal" text-anchor="start">read_metadata</text></g>
<g><title>e2::read_truth</title>
<circle cx="126.2" cy="159.9" r="4.7" fill="#FFFFFF" stroke="#636EFA" stroke-width="1.3"/>
<text x="172.5" y="154.4" font-family="Arial" font-size="6.5" fill="#A8A8A8" text-anchor="start">e2</text>
<text x="172.5" y="164.6" font-family="Arial" font-size="13" fill="#7A7A7A" font-weight="normal" text-anchor="start">read_truth</text></g>
<g><title>e2::short_reads_1</title>
<circle cx="92.4" cy="191.1" r="4.7" fill="#FFFFFF" stroke="#636EFA" stroke-width="1.3"/>
<text x="172.5" y="185.6" font-family="Arial" font-size="6.5" fill="#A8A8A8" text-anchor="start">e2</text>
<text x="172.5" y="195.8" font-family="Arial" font-size="13" fill="#7A7A7A" font-weight="normal" text-anchor="start">short_reads_1</text></g>
<g><title>e2::short_reads_2</title>
<circle cx="58.6" cy="222.3" r="4.7" fill="#FFFFFF" stroke="#636EFA" stroke-width="1.3"/>
<text x="172.5" y="216.8" font-family="Arial" font-size="6.5" fill="#A8A8A8" text-anchor="start">e2</text>
<text x="172.5" y="227.0" font-family="Arial" font-size="13" fill="#7A7A7A" font-weight="normal" text-anchor="start">short_reads_2</text></g>
<g><title>fastqc_raw</title>
<polygon points="70.2,248.9 80.9,248.9 75.5,258.1" fill="#FFFFFF" stroke="#636EFA" stroke-width="2.0" stroke-linejoin="round"/>
<text x="172.5" y="258.2" font-family="Arial" font-size="13" fill="#111111" font-weight="600" text-anchor="start">fastqc_raw</text></g>
<g><title>e2::fastqc_raw_reports</title>
<circle cx="75.5" cy="284.7" r="5.3" fill="#636EFA" stroke="#2B2B2B" stroke-width="1.3"/>
<text x="172.5" y="279.2" font-family="Arial" font-size="6.5" fill="#8A8A8A" text-anchor="start">e2</text>
<text x="172.5" y="289.4" font-family="Arial" font-size="13" fill="#111111" font-weight="normal" text-anchor="start">fastqc_raw_reports</text></g>
<g><title>fastp</title>
<polygon points="87.1,311.3 97.8,311.3 92.4,320.5" fill="#FFFFFF" stroke="#EF553B" stroke-width="2.0" stroke-linejoin="round"/>
<text x="172.5" y="320.6" font-family="Arial" font-size="13" fill="#111111" font-weight="600" text-anchor="start">fastp</text></g>
<g><title>e2::fastp_json</title>
<circle cx="75.5" cy="347.1" r="5.3" fill="#EF553B" stroke="#2B2B2B" stroke-width="1.3"/>
<text x="172.5" y="341.6" font-family="Arial" font-size="6.5" fill="#8A8A8A" text-anchor="start">e2</text>
<text x="172.5" y="351.8" font-family="Arial" font-size="13" fill="#111111" font-weight="normal" text-anchor="start">fastp_json</text></g>
<g><title>e2::fastp_html</title>
<circle cx="75.5" cy="378.3" r="5.3" fill="#EF553B" stroke="#2B2B2B" stroke-width="1.3"/>
<text x="172.5" y="372.8" font-family="Arial" font-size="6.5" fill="#8A8A8A" text-anchor="start">e2</text>
<text x="172.5" y="383.0" font-family="Arial" font-size="13" fill="#111111" font-weight="normal" text-anchor="start">fastp_html</text></g>
<g><title>e2::trimmed_short_reads</title>
<circle cx="75.5" cy="409.5" r="4.7" fill="#FFFFFF" stroke="#EF553B" stroke-width="1.3"/>
<text x="172.5" y="404.0" font-family="Arial" font-size="6.5" fill="#A8A8A8" text-anchor="start">e2</text>
<text x="172.5" y="414.2" font-family="Arial" font-size="13" fill="#7A7A7A" font-weight="normal" text-anchor="start">trimmed_short_reads</text></g>
<g><title>fastqc_trimmed</title>
<polygon points="87.1,436.1 97.8,436.1 92.4,445.3" fill="#FFFFFF" stroke="#636EFA" stroke-width="2.0" stroke-linejoin="round"/>
<text x="172.5" y="445.4" font-family="Arial" font-size="13" fill="#111111" font-weight="600" text-anchor="start">fastqc_trimmed</text></g>
<g><title>e2::fastqc_trimmed_reports</title>
<circle cx="92.4" cy="471.9" r="5.3" fill="#636EFA" stroke="#2B2B2B" stroke-width="1.3"/>
<text x="172.5" y="466.4" font-family="Arial" font-size="6.5" fill="#8A8A8A" text-anchor="start">e2</text>
<text x="172.5" y="476.6" font-family="Arial" font-size="13" fill="#111111" font-weight="normal" text-anchor="start">fastqc_trimmed_reports</text></g>
<g><title>megahit</title>
<polygon points="53.3,498.5 64.0,498.5 58.6,507.7" fill="#FFFFFF" stroke="#636EFA" stroke-width="2.0" stroke-linejoin="round"/>
<text x="172.5" y="507.8" font-family="Arial" font-size="13" fill="#111111" font-weight="600" text-anchor="start">megahit</text></g>
<g><title>e2::megahit_assembly</title>
<circle cx="24.8" cy="534.3" r="5.3" fill="#636EFA" stroke="#2B2B2B" stroke-width="1.3"/>
<text x="172.5" y="528.8" font-family="Arial" font-size="6.5" fill="#8A8A8A" text-anchor="start">e2</text>
<text x="172.5" y="539.0" font-family="Arial" font-size="13" fill="#111111" font-weight="normal" text-anchor="start">megahit_assembly</text></g>
<g><title>bowtie2_binning_bam</title>
<polygon points="70.2,560.9 80.9,560.9 75.5,570.1" fill="#FFFFFF" stroke="#636EFA" stroke-width="2.0" stroke-linejoin="round"/>
<text x="172.5" y="570.2" font-family="Arial" font-size="13" fill="#111111" font-weight="600" text-anchor="start">bowtie2_binning_bam</text></g>
<g><title>e2::binning_bam</title>
<circle cx="58.6" cy="596.7" r="4.7" fill="#FFFFFF" stroke="#636EFA" stroke-width="1.3"/>
<text x="172.5" y="591.2" font-family="Arial" font-size="6.5" fill="#A8A8A8" text-anchor="start">e2</text>
<text x="172.5" y="601.4" font-family="Arial" font-size="13" fill="#7A7A7A" font-weight="normal" text-anchor="start">binning_bam</text></g>
<g><title>gold_standard</title>
<polygon points="120.9,623.3 131.6,623.3 126.2,632.5" fill="#FFFFFF" stroke="#636EFA" stroke-width="2.0" stroke-linejoin="round"/>
<text x="172.5" y="632.6" font-family="Arial" font-size="13" fill="#111111" font-weight="600" text-anchor="start">gold_standard</text></g>
<g><title>e2::contig_gold_standard</title>
<circle cx="143.1" cy="659.1" r="4.7" fill="#FFFFFF" stroke="#636EFA" stroke-width="1.3"/>
<text x="172.5" y="653.6" font-family="Arial" font-size="6.5" fill="#A8A8A8" text-anchor="start">e2</text>
<text x="172.5" y="663.8" font-family="Arial" font-size="13" fill="#7A7A7A" font-weight="normal" text-anchor="start">contig_gold_standard</text></g>
<g><title>comebin</title>
<polygon points="87.1,685.7 97.8,685.7 92.4,694.9" fill="#FFFFFF" stroke="#EF553B" stroke-width="2.0" stroke-linejoin="round"/>
<text x="172.5" y="695.0" font-family="Arial" font-size="13" fill="#111111" font-weight="600" text-anchor="start">comebin</text></g>
<g><title>e2::comebin_bin</title>
<circle cx="75.5" cy="721.5" r="5.3" fill="#EF553B" stroke="#2B2B2B" stroke-width="1.3"/>
<text x="172.5" y="716.0" font-family="Arial" font-size="6.5" fill="#8A8A8A" text-anchor="start">e2</text>
<text x="172.5" y="726.2" font-family="Arial" font-size="13" fill="#111111" font-weight="normal" text-anchor="start">comebin_bin</text></g>
<g><title>e2::comebin_contig_to_bin</title>
<circle cx="126.2" cy="752.7" r="5.3" fill="#EF553B" stroke="#2B2B2B" stroke-width="1.3"/>
<text x="172.5" y="747.2" font-family="Arial" font-size="6.5" fill="#8A8A8A" text-anchor="start">e2</text>
<text x="172.5" y="757.4" font-family="Arial" font-size="13" fill="#111111" font-weight="normal" text-anchor="start">comebin_contig_to_bin</text></g>
<g><title>semibin2</title>
<polygon points="87.1,779.3 97.8,779.3 92.4,788.5" fill="#FFFFFF" stroke="#EF553B" stroke-width="2.0" stroke-linejoin="round"/>
<text x="172.5" y="788.6" font-family="Arial" font-size="13" fill="#111111" font-weight="600" text-anchor="start">semibin2</text></g>
<g><title>e2::semibin2_bin</title>
<circle cx="75.5" cy="815.1" r="5.3" fill="#EF553B" stroke="#2B2B2B" stroke-width="1.3"/>
<text x="172.5" y="809.6" font-family="Arial" font-size="6.5" fill="#8A8A8A" text-anchor="start">e2</text>
<text x="172.5" y="819.8" font-family="Arial" font-size="13" fill="#111111" font-weight="normal" text-anchor="start">semibin2_bin</text></g>
<g><title>e2::semibin2_contig_to_bin</title>
<circle cx="92.4" cy="846.3" r="5.3" fill="#EF553B" stroke="#2B2B2B" stroke-width="1.3"/>
<text x="172.5" y="840.8" font-family="Arial" font-size="6.5" fill="#8A8A8A" text-anchor="start">e2</text>
<text x="172.5" y="851.0" font-family="Arial" font-size="13" fill="#111111" font-weight="normal" text-anchor="start">semibin2_contig_to_bin</text></g>
<g><title>metabat2</title>
<polygon points="70.2,872.9 80.9,872.9 75.5,882.1" fill="#FFFFFF" stroke="#EF553B" stroke-width="2.0" stroke-linejoin="round"/>
<text x="172.5" y="882.2" font-family="Arial" font-size="13" fill="#111111" font-weight="600" text-anchor="start">metabat2</text></g>
<g><title>e2::metabat2_bin</title>
<circle cx="58.6" cy="908.7" r="5.3" fill="#EF553B" stroke="#2B2B2B" stroke-width="1.3"/>
<text x="172.5" y="903.2" font-family="Arial" font-size="6.5" fill="#8A8A8A" text-anchor="start">e2</text>
<text x="172.5" y="913.4" font-family="Arial" font-size="13" fill="#111111" font-weight="normal" text-anchor="start">metabat2_bin</text></g>
<g><title>e2::metabat2_contig_to_bin</title>
<circle cx="75.5" cy="939.9" r="5.3" fill="#EF553B" stroke="#2B2B2B" stroke-width="1.3"/>
<text x="172.5" y="934.4" font-family="Arial" font-size="6.5" fill="#8A8A8A" text-anchor="start">e2</text>
<text x="172.5" y="944.6" font-family="Arial" font-size="13" fill="#111111" font-weight="normal" text-anchor="start">metabat2_contig_to_bin</text></g>
<g><title>das_tool</title>
<polygon points="36.4,966.5 47.1,966.5 41.7,975.7" fill="#FFFFFF" stroke="#00CC96" stroke-width="2.0" stroke-linejoin="round"/>
<text x="172.5" y="975.8" font-family="Arial" font-size="13" fill="#111111" font-weight="600" text-anchor="start">das_tool</text></g>
<g><title>e2::das_tool_summary</title>
<circle cx="58.6" cy="1002.3" r="5.3" fill="#00CC96" stroke="#2B2B2B" stroke-width="1.3"/>
<text x="172.5" y="996.8" font-family="Arial" font-size="6.5" fill="#8A8A8A" text-anchor="start">e2</text>
<text x="172.5" y="1007.0" font-family="Arial" font-size="13" fill="#111111" font-weight="normal" text-anchor="start">das_tool_summary</text></g>
<g><title>e2::das_tool_bin</title>
<circle cx="58.6" cy="1033.5" r="5.3" fill="#00CC96" stroke="#2B2B2B" stroke-width="1.3"/>
<text x="172.5" y="1028.0" font-family="Arial" font-size="6.5" fill="#8A8A8A" text-anchor="start">e2</text>
<text x="172.5" y="1038.2" font-family="Arial" font-size="13" fill="#111111" font-weight="normal" text-anchor="start">das_tool_bin</text></g>
<g><title>e2::das_tool_contig_to_bin</title>
<circle cx="41.7" cy="1064.7" r="5.3" fill="#00CC96" stroke="#2B2B2B" stroke-width="1.3"/>
<text x="172.5" y="1059.2" font-family="Arial" font-size="6.5" fill="#8A8A8A" text-anchor="start">e2</text>
<text x="172.5" y="1069.4" font-family="Arial" font-size="13" fill="#111111" font-weight="normal" text-anchor="start">das_tool_contig_to_bin</text></g>
<g><title>amber</title>
<polygon points="36.4,1091.3 47.1,1091.3 41.7,1100.5" fill="#FFFFFF" stroke="#AB63FA" stroke-width="2.0" stroke-linejoin="round"/>
<text x="172.5" y="1100.6" font-family="Arial" font-size="13" fill="#111111" font-weight="600" text-anchor="start">amber</text></g>
<g><title>e2::amber_results</title>
<circle cx="24.8" cy="1127.1" r="5.3" fill="#AB63FA" stroke="#2B2B2B" stroke-width="1.3"/>
<text x="172.5" y="1121.6" font-family="Arial" font-size="6.5" fill="#8A8A8A" text-anchor="start">e2</text>
<text x="172.5" y="1131.8" font-family="Arial" font-size="13" fill="#111111" font-weight="normal" text-anchor="start">amber_results</text></g>
<g><title>e2::amber_bin_metrics</title>
<circle cx="41.7" cy="1158.3" r="5.3" fill="#AB63FA" stroke="#2B2B2B" stroke-width="1.3"/>
<text x="172.5" y="1152.8" font-family="Arial" font-size="6.5" fill="#8A8A8A" text-anchor="start">e2</text>
<text x="172.5" y="1163.0" font-family="Arial" font-size="13" fill="#111111" font-weight="normal" text-anchor="start">amber_bin_metrics</text></g>
<g><title>checkm2</title>
<polygon points="154.7,1184.9 165.4,1184.9 160.0,1194.1" fill="#FFFFFF" stroke="#636EFA" stroke-width="2.0" stroke-linejoin="round"/>
<text x="172.5" y="1194.2" font-family="Arial" font-size="13" fill="#111111" font-weight="600" text-anchor="start">checkm2</text></g>
<g><title>e2::checkm2_quality</title>
<circle cx="160.0" cy="1220.7" r="5.3" fill="#636EFA" stroke="#2B2B2B" stroke-width="1.3"/>
<text x="172.5" y="1215.2" font-family="Arial" font-size="6.5" fill="#8A8A8A" text-anchor="start">e2</text>
<text x="172.5" y="1225.4" font-family="Arial" font-size="13" fill="#111111" font-weight="normal" text-anchor="start">checkm2_quality</text></g>
</svg>
